<?xml version="1.0" encoding="utf-8"?>
<!-- Generator: Adobe Illustrator 23.0.0, SVG Export Plug-In . SVG Version: 6.00 Build 0)  -->
<svg version="1.1" id="Layer_1" xmlns="http://www.w3.org/2000/svg" xmlns:xlink="http://www.w3.org/1999/xlink" x="0px" y="0px"
	 viewBox="0 0 1024 768" style="enable-background:new 0 0 1024 768;" xml:space="preserve">
<style type="text/css">
	.st0{fill:#F77487;}
</style>
<path class="st0" d="M153.5,437.7c0,0.8,0,1.4,0.1,2c0.1,0.3,0.2,0.7,0.3,1.1c0.1,0.3,0.2,0.7,0.4,1.1l0.7,1.1
	c0.2,0.3,0.4,0.6,0.7,0.9c0.3,0.4,0.7,0.7,1.1,1l0.3,0.3l0.8,0.5c0.3,0.2,0.6,0.3,0.8,0.4c0.2,0.1,0.3,0.1,0.5,0.2
	c0.7,0.3,1.3,0.4,2,0.5l1,0.1c0.5,0,1,0,1.5-0.1l0.8-0.2l83.9-24.6l165.4,249c1.4,2.1,3.7,3.5,6.2,3.8c2.5,0.3,5-0.5,6.9-2.2
	l16-14.6l20.8,30.5c0.1,0.2,0.3,0.3,0.5,0.5c0.4,0.4,0.7,0.6,1,0.9c0.2,0.2,0.5,0.4,0.8,0.5c0.3,0.2,0.7,0.4,1,0.5l1.6,0.5
	c0.2,0.1,0.5,0.1,0.8,0.1l0.2,0.1l0.9,0c1,0,2-0.2,3-0.6l0.9-0.4c0,0,0.5-0.2,1.1-0.6l1.2-1l73.9-74.8l429.2-18.6
	c0.8,0,1.6-0.2,2.4-0.5l0.7-0.3c0.6-0.3,1.1-0.6,1.6-0.9l0.6-0.5c0.6-0.5,1-1,1.3-1.5l0.7-1.1c0.3-0.7,0.6-1.4,0.8-2.2l0.1-0.7
	c0.1-0.8,0.1-1.6-0.1-2.4l-0.1-0.7c-0.2-0.8-0.5-1.5-0.8-2.1l-0.3-0.5L855.4,384.5c-1.8-2.7-5-4.2-8.3-3.8l-22.2,2.7l138.8-244.3
	c2.1-3.7,1.2-8.3-2.1-11c-3.2-2.6-8.1-2.5-11.2,0.2L670.1,372.4l-53.7-140.8c-0.8-2.1-2.3-3.8-4.4-4.7l-384-184
	c-0.8-0.4-1.6-0.6-2.4-0.7l-0.7-0.1c-0.8-0.1-1.5,0-2.3,0.1l-0.8,0.2c-0.7,0.2-1.3,0.5-1.9,0.8l-0.3,0.1l-1.4,1.2
	c-0.5,0.4-0.9,0.9-1.2,1.4l-0.4,0.7c-0.4,0.8-0.7,1.7-0.9,2.6l-0.1,0.7c0,0.4-0.1,0.9,0,1.4l24.6,302.7l-35.1,0.4
	c-3.1,0-5.9,1.7-7.4,4.4l-43.4,75.5l-0.1,0.5c-0.2,0.5-0.4,1.1-0.5,1.6C153.6,437,153.5,437.4,153.5,437.7z M173.3,425.7l33.9-59.1
	l48.2-0.6c-0.2,0.1-0.3,0.1-0.5,0.3L173.3,425.7z M252.6,376.6l-3.7,32.4l-68.5,20.1L252.6,376.6z M605.5,237.2l55.4,145l-87.2-20.4
	c-0.1,0-0.1,0-0.2,0c-0.3,0-0.5-0.1-0.8-0.1c-0.1,0-0.2,0-0.2,0c-0.3,0-0.7,0.1-1,0.3c-0.1,0-0.1,0.1-0.2,0.1
	c-0.2,0.1-0.4,0.2-0.5,0.3L501.5,414L235.5,59.9L605.5,237.2z M485.4,509.4l-50.6-37.1l68.1-50.7c0,0,0,0,0,0l0,0l58.9-43.9
	l-75.1,133.6C486.5,510.6,486.1,509.9,485.4,509.4z M571.3,375l23.5,111.6l-22.6,14.2c0,0,0,0,0,0l-110.7,69.4L571.3,375z
	 M725.7,404.5l-124.6,78.1l-23.8-112.8L725.7,404.5z M673.8,385.3L943,150.8l-136.4,240l-71.9,8.7L673.8,385.3z M846.4,393
	l125.4,188.7L583.4,502l152.4-95.6L846.4,393z M951,584.5l-400.9,17.3c-1.4-1.3-3.5-1.3-4.9,0.1l-0.1,0.1l-25.8,1.1l-59.8-23.6
	l115.3-72.3L951,584.5z M538,609.4l-65.4,66.2l-16.2-89.7l61.1,24.1c0.4,0.2,0.8,0.2,1.3,0.2c0.1,0,0.1,0,0.1,0L538,609.4z
	 M464.1,667.3L262.5,371.1l15.6-4.9L481.3,515c0.9,0.7,2.1,0.8,3.1,0.4l-35.5,63.2c0,0,0,0.1,0,0.1c-0.2,0.3-0.3,0.7-0.4,1
	c0,0.1,0,0.1,0,0.2c0,0.2-0.1,0.5,0,0.7c0,0.1,0,0.1,0,0.2c0,0,0,0.1,0,0.1L464.1,667.3z M439.9,644.1l-18.2,16.6l-166-249.9l3.7-32
	L439.9,644.1z M252.8,359.2L228.6,62.4l267.2,355.8l-67,49.9L280.8,359.5c-0.2-0.1-0.3-0.2-0.5-0.3c-0.2-0.1-0.4-0.2-0.6-0.2
	c-0.3-0.1-0.6-0.1-0.9-0.1c0,0-0.1,0-0.1,0L252.8,359.2z"/>
<g>
</g>
<g>
</g>
<g>
</g>
<g>
</g>
<g>
</g>
<g>
</g>
<g>
</g>
<g>
</g>
<g>
</g>
<g>
</g>
<g>
</g>
<g>
</g>
<g>
</g>
<g>
</g>
<g>
</g>
</svg>
