<svg width="1011" height="641" xmlns="http://www.w3.org/2000/svg">
 <style type="text/css">.st0{fill:#F77487;}</style>

 <g>
  <title>background</title>
  <rect fill="none" id="canvas_background" height="643" width="1013" y="-1" x="-1"/>
 </g>
 <g>
  <title>Layer 1</title>
  <path id="svg_1" d="m1010.299988,470.5c-7.599976,-32.799988 -28.200012,-57.799988 -59.599976,-72.600006c17.399963,-18.699982 20.799988,-44 24,-68.5c3.199951,-24.100006 6.199951,-46.799988 21.5,-64c1.799988,-2 2.5,-4.600006 1.899963,-7.100006c-0.599976,-2.599991 -2.5,-4.699982 -5.099976,-5.799988c-10.799988,-4.399994 -22.600037,-6.699997 -35,-6.699997c-17.900024,0 -35.700012,4.800003 -50.799988,13.400009c8.699951,-16.000015 18.599976,-31.300018 30.5,-47.200012c3.699951,-5 4.699951,-9.5 2.799988,-13.199997c-2.5,-4.900009 -9.100037,-7.199997 -20.700012,-7.199997c-9.099976,0 -18.799988,1.399994 -22.400024,1.899994l-0.899963,0.100006c-37.700012,5.199997 -76.299988,15.899994 -112.5,31c15.200012,-26.200012 25.299988,-55.900009 30.899963,-90.200012c3.200012,-19.299995 4.200012,-40.099983 3.200012,-61.999992c-0.5,-10.600002 -1.899963,-21.100002 -3.099976,-29.100002c-0.200012,-1.599998 -0.400024,-3.299999 -0.700012,-5c-1,-7.599998 -2.099976,-16.299999 -5.5,-22.799999c-2.900024,-5.5 -7.5,-8.4 -13.299988,-8.4c-7.5,0 -15.600037,4.9 -22,8.8c-1.900024,1.1 -3.700012,2.200001 -5.100037,3c-24.5,12.9 -44,24.300001 -61.299988,35.800001c-27.699951,18.299999 -49.799988,38.299999 -65.799988,59.600002c-7.200012,7.899994 -13.599976,16.5 -18.5,25.099991c-1.700012,-0.399994 -3.299988,-0.599991 -4.900024,-0.699997c-6.099976,-0.300003 -11.299988,1 -15.699951,2.699997c-2.400024,-14.799995 -8.300049,-29.899994 -17.900024,-45.799995c-5.599976,-9.299995 -12.299988,-17.699997 -19.299988,-26.299988c-0.799988,-1 -1.799988,-2.400009 -3,-4.099998c-7.100037,-10.000004 -13.600037,-18.200012 -20.400024,-18.200012c-36.199982,0 -73.299988,28.200012 -93.099976,57.5c-0.200012,-0.199997 -0.300018,-0.300003 -0.5,-0.5c-18.5,-18.799988 -41.600006,-30.599998 -64,-41.900002c-21.400024,-10.899998 -43.600006,-22.099998 -60.800018,-39.399998c-1.600006,-1.6 -3.799988,-2.5 -6.100006,-2.5c-2.399994,0 -4.699982,1 -6.099976,2.799999c-24.900024,30.599998 -36.300018,68.5 -32.300018,106.100006c-0.399994,-0.400009 -0.699982,-0.900009 -1.100006,-1.300003c-6.099976,-7.300003 -13,-14.700005 -22.399979,-24.100006c-1,-1 -2.200012,-2.399994 -3.5,-3.799995c-4.900009,-5.400002 -11,-12.200005 -17.5,-14c-2,-0.599998 -4,-0.800003 -5.800003,-0.800003c-14.300003,0 -18.100006,15.400002 -20.800003,26.700005c-0.300003,1.199997 -0.600006,2.399994 -0.899994,3.599998c-7.5,28.700005 -9.5,59.599998 -5.700012,89.999992c-13.099991,-6.099991 -27.099991,-7.699997 -41.5,-9c-9.099991,-0.799988 -18.299988,-1.5 -27.399994,-2.299988c-19.700005,-1.600006 -40,-3.300003 -60,-5.300003l-0.700005,0c-2.299995,0 -4.5,1.099991 -6.199997,2.899994c-1.599998,1.800003 -2.299999,4 -2.099998,6.100006c3.5,29.300003 17.099998,59.800003 36.900009,82.999985c-6.400002,0.900024 -13.400002,2.5 -21.099998,4.900024l-0.300003,0.099976c-2.5,0.700012 -7.400002,2.200012 -11,4.700012c-2,0.700012 -3.799999,2.100006 -4.699997,4c-1,1.899994 -1.100002,4.100006 -0.300003,6.100006c20.700005,49.399994 54,92.799988 94.900002,123.799988c-21.899994,-2 -42.599998,1.200012 -63.900002,9.600006c-28.099998,11.100006 -53.299999,32.399994 -70.900009,60c-1.4,2.200012 -1.599998,5 -0.599998,7.600006c1,2.5 3.199999,4.399994 5.699999,5c22.699999,5.399994 41.599997,19.800018 59.900007,33.800018c4.200005,3.199951 8.5,6.5 12.800003,9.599976c25,18.299988 54,31 86.099991,37.799988c13.899994,2.900024 28.600006,4.400024 43.700012,4.400024c48.599991,0 93.900009,-14.799988 124.499985,-40.700012c28.299988,8.400024 60.400024,10.200012 89.5,4.900024c3.700012,23 24.100006,39.099976 41.100006,48.799988c30.100006,17.099976 66.199982,27.299988 100.699982,35.799988c0.700012,0.200012 1.400024,0.299988 2.200012,0.299988c3.200012,0 6.099976,-1.700012 7.599976,-4.299988c7.100037,-12.700012 21.300049,-22.5 36.400024,-32.900024c19.099976,-13.199951 38.900024,-26.799988 44.5,-47.699951c22.299988,9.199951 49.700012,13.899963 81.599976,13.899963l0,0c16.100037,0 33.200012,-1.099976 52.200012,-3.5c35.700012,-4.399963 67.299988,-14.200012 93.900024,-29.200012c11.599976,-6.5 22.299988,-15 32.599976,-23.099976c20.400024,-16.100006 39.700012,-31.399994 65.700012,-33.100006c2.599976,-0.199982 5,-1.399994 6.5,-3.5c1.100037,-2.399994 1.600037,-5 1,-7.399994zm-795.499985,-221.800003c-0.100006,0 -0.100006,0 -0.199997,-0.099991c-1.100006,-0.300003 -1.700012,1.299988 -0.800003,1.799988c0.699997,0.400009 1.300003,0.800003 1.899994,1.200012c0.400009,1.299988 0.900009,2.5 1.300003,3.799988c-3.199997,-0.299988 -6.399994,-0.599991 -9.600006,-1.299988c-0.799988,-0.200012 -1.099991,1 -0.299988,1.199997c2.799988,0.800003 5.5,1.499985 8,3.099991c1.299988,0.800018 2.699997,1.600006 4,2.399994c0.399994,1.100006 0.899994,2.300018 1.299988,3.400024c-2.5,-0.300018 -5.099991,-0.700012 -7.599991,-1.200012c-5.300003,-1.100006 -10.600006,-2.399994 -15.800003,-3.799988c-1.100006,-0.300018 -1.5,1.299988 -0.5,1.699982c5.600006,2.200012 11.199997,4.600006 16.699997,7c3.900009,1.700012 7.400009,4 11.300003,5.700012c0.199997,0.5 0.399994,0.899994 0.699997,1.399994c-12.699997,-4.200012 -26.300003,-6.799988 -39.199997,-9.700012c-1.399994,-0.299988 -1.800003,1.600006 -0.600006,2.100006c10,4.100006 19.600006,9 29.400009,13.600006c-14.300003,-3.899994 -28.600006,-7.899994 -42.800003,-12.5c-0.699997,-0.200012 -1,0.899994 -0.300003,1.100006c15.800003,6.5 31.199997,13.5 46.600006,20.699982c-3.600006,-1.099976 -7.199997,-2 -10.900009,-2.899994c-50.5,-20.399994 -108.899994,-30.299988 -130.099991,-85.699997c21.799988,1.600006 43.5,3.600006 65.300003,5.5c22.099991,2 46.899994,1.900009 65.5,15.600006c1.699997,8.899994 3.899994,17.5 6.699997,25.899994zm93.599991,-127c6.199982,33.100006 32.199982,64.800003 23.199982,99.199997c-4.099976,-11.100006 -9.399963,-22 -15.5,-32.5c-5.5,-17.800003 -10,-35.699997 -11.899963,-54.300003c-0.100006,-1.199997 -1.800018,-1.199997 -1.800018,0c-0.399994,12.5 0.5,24.899994 2.899994,37c-3.799988,-5.699997 -7.799988,-11.300003 -11.899994,-16.699997c0,-0.199997 0,-0.400009 0,-0.600006c-7.799988,-36.400002 -2.299988,-74.5 16.200012,-106.399998c-5.700012,24.400013 -5.800018,49.300007 -1.200012,74.300007zm633.300018,236.199997c-5.700012,12.600006 -13.700012,22.699982 -21.5,33.899994c-0.799988,-0.199982 -1.700012,-0.399994 -2.5,-0.599976c4.299988,-5.700012 7.299988,-12.200012 9.400024,-19c0.299988,-1.100006 -1.300049,-1.800018 -1.900024,-0.800018c-3.900024,7.100006 -9,12.899994 -14.900024,18.299988c-29,-5.199982 -60.699951,-3.600006 -89.5,2.700012c1.5,-1 2.900024,-2.100006 4.400024,-3.200012c29.900024,-5.399994 56.099976,-32.599976 76.400024,-53.199982c12.699951,-12.900024 25,-26.200012 38.299988,-38.5c12.399963,-11.400024 26,-20.600006 40,-29.600006c-24.100037,39.299988 -11,93 -44,128.399994c-2.200012,-0.799988 -4.400024,-1.5 -6.600037,-2.100006c6.900024,-10.600006 11.300049,-23.5 14.5,-35.399994c0.400024,-1.199982 -1.5,-2.099976 -2.099976,-0.899994zm-33.5,-40.699982c-3.799988,3.899994 -7.599976,7.799988 -11.400024,11.700012c-8.5,4.899994 -17,9.799988 -25.599976,14.5c0.799988,-0.900024 1.599976,-1.700012 2.5,-2.600006c8.200012,-8.200012 17.099976,-15.600006 26.700012,-22.200012c1,-0.699982 0.200012,-2.100006 -1,-1.600006c-10.400024,4.5 -22.200012,10.100006 -32.400024,17.300018c1.299988,-2.5 2.600037,-5 3.799988,-7.600006c4.900024,-3.200012 9.700012,-6.899994 14.200012,-10.600006c1,-0.799988 -0.099976,-2.600006 -1.299988,-2.100006c-2.900024,1.200012 -5.799988,2.5 -8.700012,3.800018c0.799988,-1.800018 1.700012,-3.700012 2.5,-5.5c0.299988,-0.100006 0.5,-0.200012 0.799988,-0.399994c1.700012,-1.5 3.700012,-2.700012 5.800049,-3.700012c0.899963,-0.5 0.5,-2.100006 -0.5,-2c-1.200012,0.100006 -2.400024,0.299988 -3.600037,0.600006c3.299988,-7.399994 6.400024,-14.600006 9.400024,-21.300018c26.899963,-23 59.399963,-31.799988 93.899963,-23.5c-30.200012,8 -54,33.600006 -75.099976,55.200012zm8.700012,-97.300018c-15.099976,19.800003 -26,41.799988 -36.299988,64.300018c-9.900024,21.599976 -19.5,43.299988 -32.100037,63.5c-12.799988,20.5 -29.199951,35.299988 -47.799988,50.199982c-6.700012,2.100006 -13.099976,4.399994 -19.200012,7c-0.299988,-11.299988 12.700012,-15.699982 20.5,-21.600006c7.300049,-5.599976 13.600037,-12.299988 19.5,-19.299988c10.5,-12.5 17.900024,-27.899994 23.200012,-43.299988c0.400024,-1.200012 -1.5,-2 -2,-0.900024c-10.5,20.900024 -25.299988,38 -43.5,52.600006c-6,4.800018 -13.899963,9.5 -19.299988,15.399994c-0.099976,-2.099976 -0.299988,-4.199982 -0.599976,-6.199982c14.299988,-9.100006 26.299988,-22.5 35.899963,-36.300018c0.799988,-1.099976 -1,-2.399994 -1.899963,-1.399994c-10.200012,11.600006 -21.800049,20.200012 -34.5,28.300018c-0.100037,-0.5 -0.100037,-1.100006 -0.200012,-1.600006c-0.200012,-1.300018 -0.799988,-2.5 -0.900024,-3.800018c0,-0.199982 -0.200012,-0.399994 -0.399963,-0.5c-0.100037,-1 -0.400024,-2 -1.100037,-2.599976c-12.899963,-11.300018 -28.299988,-15 -44.399963,-13.900024c30.399963,-15.899994 55.599976,-39.299988 81,-63.099976c18,-16.900024 36,-33.800018 56.099976,-48.300018c17.299988,-12.5 36.400024,-21.099991 55.799988,-29.699997c-2.799988,4.800003 -7.600037,10.900009 -7.799988,11.199997zm-384.800049,199.600006c0.700012,-0.299988 1.400024,-0.799988 2,-1.799988c0.299988,-0.5 0.599976,-1 0.900024,-1.5c17.599976,-14.700012 36.599976,-23.700012 60,-26.600006c23,-2.800018 46.399963,0.600006 69.299988,3c37,3.899994 76.200012,4.100006 106.700012,-19.100006c1.399963,26.700012 -2.700012,50.200012 -18.600037,73.299988c-10.299988,15 -24.799988,26.800018 -40.700012,35.800018c-0.599976,0.199982 -1.099976,0.5 -1.5,0.899994c-8.099976,4.5 -16.5,8.299988 -25,11.5c-26.899963,10.100006 -56.599976,12.700012 -84.699951,6.5c-14.900024,-3.299988 -29.100037,-10.100006 -40.900024,-19.899994c-7.700012,-6.399994 -11.299988,-14.5 -16.200012,-22.300018c0.100037,-1 0.200012,-1.899994 0.200012,-2.899994c0.400024,-12.600006 -4,-25.799988 -11.5,-36.899994zm195.700012,-45.200012c-17.599976,2.5 -34.799988,3.700012 -52.200012,4.299988c31,-14 63.200012,-34 91.200012,-12.199982c-17.799988,13.5 -38.700012,18 -60.900024,18.699982c8,-2 15.700012,-4.699982 23,-8.099976c1.700012,-0.700012 0.400024,-2.899994 -1.099976,-2.700012zm175.100037,-164.499985c-31.299988,11.599991 -58.900024,36.699997 -82.400024,58.199997c-28.199951,25.700012 -55.399963,53.400024 -87.599976,73.900024c-0.099976,0 -0.200012,0 -0.299988,0c-17.100037,3.299988 -33.900024,9.699982 -50.600037,14.699982c-2.599976,0.800018 -5.099976,1.5 -7.699951,2.300018c15.699951,-7.600006 31,-15.900024 45.899963,-24.300018c1,-0.5 0.299988,-2.199982 -0.799988,-1.799988c-16.900024,6.100006 -34.099976,12 -51.200012,18.299988c19.600037,-11.199982 39.600037,-21.600006 58.900024,-33.299988c1.200012,-0.700012 0.399963,-2.800018 -1,-2.300018c-20.100037,7.800018 -39.400024,17.600006 -59,26.400024c-2,0.899994 -4,1.799988 -6.100037,2.699982c0.700012,-0.600006 1.400024,-1.100006 2.100037,-1.699982c11.799988,-8.900024 24.099976,-16.600006 36.299988,-24.800018c0.5,-0.299988 0.200012,-1.199982 -0.400024,-1c-21,6.300018 -47.199951,16.899994 -65.699951,32.300018c1.099976,-1.800018 2.199951,-3.700012 3.199951,-5.5c29.900024,-29.200012 61.100037,-56.400024 97,-78.5c41.599976,-25.400024 87.5,-43.400024 135,-54.100021c11.599976,-2.600006 23.299988,-4.5 35.099976,-6.199997c4.5,-0.600006 8.900024,-1.100006 13.400024,-1.600006c-5,1.300003 -9.799988,3.399994 -14.099976,6.300003zm-136.900024,27.300003c-3.700012,1.699997 -7.299988,3.5 -10.900024,5.300003c11.400024,-16.899994 17.200012,-35.300003 21.400024,-57.300003c0.200012,-1 -1.299988,-1.5 -1.599976,-0.399994c-6.100037,23.099991 -20.400024,46.599991 -35.100037,65.899994c-5.099976,2.800003 -10.099976,5.800018 -15.099976,8.800018c19.700012,-21.400009 31.599976,-47.400009 39.200012,-77.100021c6.099976,-23.899994 8.399963,-48.799988 10.699951,-73.299995c1.200012,-12.399994 2.200012,-24.899994 3.5,-37.299995c1.700012,-16.300003 0.800049,-42.600002 19,-50.100002c0.100037,0 0.100037,-0.1 0.200012,-0.1c2.200012,3.1 2.799988,9.200001 3.200012,10.800001c15.700012,70.299988 -1.400024,142.299995 -34.5,204.799995zm12.900024,-209.600006c1.400024,-0.700001 2.799988,-1.5 4.200012,-2.200001c-8,8.600002 -9.900024,22.799999 -11.700012,34.700001c-4.099976,26.800003 -5.299988,54.099998 -8.599976,81c-5.600037,46 -20.200012,98.199997 -56.300049,130c14.200012,-19.5 25.300049,-42.699997 32.400024,-64c0.299988,-1 -1.099976,-1.5 -1.700012,-0.699997c-9,13.5 -17.5,27.300003 -27.200012,40.399994c-5.699951,7.699997 -12,15.000015 -18.299988,22.400009c1.700012,-3.300018 3.299988,-6.5 5,-9.700012c10.200012,-19.899994 18.900024,-41.299988 26.100037,-62.399994c0.299988,-0.899994 -1,-1.399994 -1.5,-0.600006c-10.5,17.700012 -20.800049,35.5 -31.400024,53.100006c-5.599976,9.299988 -11.799988,18.700012 -17.700012,28.200012c2.600037,-6.600006 5.299988,-13.200012 8.100037,-19.700012c9,-21.199997 18.5,-42 28.099976,-62.899994c0.599976,-1.300003 -1.099976,-2.300003 -1.900024,-1.100006c-13.699951,20.199997 -27.699951,42.100006 -39.399963,64.899994c10,-27.399994 20.399963,-54.5 32.299988,-81.199997c0.299988,-0.699997 -0.599976,-1.199997 -1,-0.599991c-14,21.399994 -26,42 -34.400024,64.699997c0.100037,-4 0.200012,-7.900009 0.100037,-11.900009c9.099976,-16.599991 14.5,-35.199997 24,-51.699997c0.599976,-1 -0.900024,-2.199997 -1.700012,-1.300003c-8.900024,10.100006 -18,21.800003 -23.700012,34.600006c-0.399963,-3.300003 -0.899963,-6.600006 -1.5,-9.899994c4.299988,-8 7.5,-16.700012 11.700012,-24.800003c0.299988,-0.5 -0.400024,-1.199997 -0.900024,-0.699997c-4.599976,5.299988 -9.199951,10.699997 -12.799988,16.699997c-0.299988,-1 -0.5,-2 -0.799988,-3c1.200012,-1.699997 1.599976,-3.900009 2.299988,-5.900009c1,-2.899994 2,-5.799988 3,-8.699997c0.299988,-0.800003 -0.799988,-1.099991 -1.200012,-0.5c-1.699951,2.199997 -3.399963,4.5 -5.099976,6.699997c-0.400024,0.5 -0.799988,0.900009 -1.200012,1.400009c-1,-3 -2.099976,-6 -3.399963,-8.900009c-3.800049,-8.899994 -11,-19.299988 -20.100037,-25.5c3.5,-5.5 6.900024,-11.099991 10.5,-16.5c17.400024,-23.199997 38.400024,-43.199997 62.100037,-60.399994c15,-10.900002 30.899963,-20.299999 46.899963,-29.5c8.899963,-4.900002 17.799988,-9.700001 26.700012,-14.5zm-127.300049,171.5c13.700012,60.899994 -6.700012,133.100006 -49.900024,177.600006c-0.899963,0.899994 -1.199951,2 -1.199951,2.899994c-3.900024,0.200012 -7.700012,0.5 -11.5,1c6.899963,-12 11.699951,-25.199982 15.299988,-38.399994c0.399963,-1.399994 -1.600037,-1.899994 -2.200012,-0.600006c-5.900024,14.5 -13.900024,27.399994 -22.200012,40.5c-3.700012,0.799988 -7.299988,1.700012 -10.799988,2.899994c13.799988,-25.600006 22.099976,-53.899994 26.599976,-82.5c0.300049,-1.600006 -2.099976,-2.399994 -2.5,-0.699982c-7.399963,31.5 -20.399963,60.200012 -36.199951,88.299988c-4.300049,2.200012 -8.5,4.900024 -12.5,8.100006c21.5,-44.5 32,-95.600006 33.5,-144.199997c0,-1.100006 -1.5,-1 -1.600037,0c-7.200012,56.800003 -25.099976,107.699997 -49,159.400009c-2.399963,-2.700012 -4.899963,-5.300018 -7.700012,-7.5c15.5,-36.400024 23.400024,-75.600006 25.700012,-115c0.100037,-1.5 -2.099976,-1.399994 -2.299988,0c-2.599976,19.699982 -6.700012,38.799988 -11.799988,57.599976c4.299988,-35.699982 -3,-72.299988 -21.900024,-104.099991c-2,-3.299988 -4.100006,-6.599991 -6.399994,-9.699997c0.299988,-0.399994 0.5,-0.899994 0.600006,-1.599991c2.799988,-39.600006 30,-67.400009 69.700012,-69.700012c7.200012,-0.399994 13.799988,-1.299988 20.700012,-3.5c9.899963,-3.199997 15,-9.899994 26.699951,-7.199997c18.900024,4.199997 27.300049,30.199997 30.900024,46.399994zm-171.899963,188.299988c-3.799988,-13.700012 -8,-27.299988 -12.299988,-40.899994c-0.400024,-1.200012 -2,-0.700012 -1.800018,0.5c2.300018,13.899994 4.700012,27.799988 7.5,41.699982c-2.199982,-0.199982 -4.399994,-0.399994 -6.600006,-0.5c-5,-18.399994 -11.399994,-36.399994 -17.5,-54.399994c-0.399994,-1.299988 -2.199982,-0.699982 -2,0.5c3.5,17.899994 6.800018,36 11.300018,53.700012c-1.899994,0 -3.700012,0 -5.600006,0.100006c-13.399994,-29.200012 -28.5,-56.700012 -37.899994,-87.700012c-0.399994,-1.100006 -2,-0.700012 -1.800018,0.5c5.700012,29.899994 14.5,61.899994 31.400024,87.700012c-3.800018,0.299988 -7.700012,0.799988 -11.5,1.299988c-18.400024,-40.600006 -33.200012,-83.399994 -45.400024,-126.300018c-0.399994,-1.399994 -2.299988,-0.799988 -2.099976,0.600006c6.5,44.899994 20.099976,86.399994 39.899994,126.899994c-4.700012,0.800018 -9.5,1.800018 -14.200012,2.900024c-8.899994,-20.800018 -19.100006,-40.600006 -26,-62.200012c-0.399994,-1.200012 -1.899994,-0.700012 -1.799988,0.5c3.100006,21.799988 9,44.600006 21,63.399994c-2.600006,0.700012 -5.100006,1.300018 -7.700012,2.100006c0,-0.100006 -0.100006,-0.299988 -0.100006,-0.399994c-5.699982,-12.200012 -13.599976,-23.299988 -19.5,-35.399994c-0.299988,-0.700012 -1.5,-0.200012 -1.199982,0.5c4.799988,12.299988 8.399994,25.299988 14.600006,37.099976c-4.700012,1.400024 -9.400024,2.800018 -14,4.300018c-8,-8.200012 -16.600006,-15.800018 -25.600006,-22.899994c-16.100006,-33 -24.399994,-68.900024 -21.700012,-105.700012c2.899994,-38.599991 21.300018,-74.300003 38.800018,-108.199997c24.699982,9.200012 50.899994,13.900009 74.399994,26.100006c21.899994,11.399994 40.299988,28.800003 54.5,48.699997c32.300018,45.399994 34.699982,106.100006 11.199982,155.700012c-9.199982,-4 -18.699982,-6.700012 -28.399994,-8.100006c0.299988,-0.600006 0.299988,-1.299988 0.100006,-2.100006zm77.899963,-231.399994c-5.099976,0.800003 -10.099976,2.199997 -14.799988,4.099991c0.5,-5.599991 0.799988,-11.299988 1.299988,-17c0.099976,-1 -1.400024,-1.099991 -1.700012,-0.199997c-1.700012,6.600006 -3.599976,13.100006 -5.099976,19.699997c-2.200012,1.100006 -4.400024,2.400009 -6.5,3.800003c0.399963,-7.699997 0.099976,-15.599991 0.200012,-23.299988c0,-0.399994 -0.700012,-0.5 -0.800049,-0.100006c-1.899963,9.200012 -4.399963,18.5 -5.5,27.899994c-2.5,2.100006 -4.899963,4.300018 -7.099976,6.699997c1.299988,-15.599991 0.799988,-31.399979 0.5,-46.899994c0,-1.100006 -1.5,-1 -1.599976,0c-2.200012,19.199997 -6.100006,38.5 -7.300018,57.800003c-1.899994,3 -3.600006,6.199997 -5.100006,9.399994c1.399994,-25.199997 0.300018,-50.599991 2,-75.699989c0,-0.699997 -1.100006,-0.900002 -1.199982,-0.199997c-4.200012,22.299995 -9.300018,45.400002 -11.200012,68.499992c-1.5,-5.5 -3.200012,-11 -5.200012,-16.299988c1,-15.100006 2.400024,-30.300003 4.600006,-45.200012c0.100006,-0.799988 -1,-1.399994 -1.399994,-0.599991c-5.100006,10.800003 -8,21.5 -8.799988,32.699997c-1.800018,-3.699997 -3.700012,-7.300003 -5.700012,-10.899994c0.100006,-6 0.899994,-12 2.100006,-18c0.199982,-1.200012 -1.300018,-1.900009 -2,-0.800003c-2.300018,3.399994 -3.800018,7.099991 -4.700012,10.899994c-5.899994,-9.399994 -12.5,-18.299995 -19.700012,-26.5c20.100006,-28 47.600006,-46.400009 81.299988,-53.900005c12.100037,-2.700001 29.700012,27.700008 35.600037,36.400005c11.099976,16.200005 18.099976,34.099991 20.299988,53.599991c-10.099976,3.600006 -21.899963,2.500015 -32.5,4.100006zm-66.699982,63.900009c-2.300018,-2.5 -4.600006,-4.900009 -7,-7.199997c-6.399994,-31.900009 -22.399994,-61.700012 -41.800018,-87.800003c-0.5,-0.600006 -1.299988,-0.100006 -1,0.599998c11.100037,25.200005 20.300018,50.900002 30.5,76.400002c-2.099976,-1.699997 -4.299988,-3.300003 -6.5,-4.900009c0,-0.099991 0,-0.199997 0,-0.299988c-1.399994,-7 -5.5,-13.300003 -8.399963,-19.700012c-3.300018,-7.099991 -7,-14 -10.800018,-20.799988c-0.300018,-0.600006 -1.300018,-0.200012 -1.100006,0.5c2.399994,6.399994 4.600006,12.899994 6.700012,19.399994c1.399994,4.5 2.199982,9.300003 3.299988,14c-0.200012,-0.100006 -0.299988,-0.199997 -0.5,-0.300003c-16.200012,-10.099991 -34.099976,-15.599991 -52.200012,-21c-1.899994,-2.699997 -4.299988,-5.099991 -6.299988,-7.800003c-0.399994,-0.5 -1.299988,-0.199997 -1.100006,0.5c0.700012,1.800003 1.200012,3.800003 1.800018,5.700012c-4.200012,-1.200012 -8.300018,-2.5 -12.400024,-3.800003c-0.899994,-2.5 -3,-4.600006 -4.5,-6.800003c-1.899994,-2.699997 -3.599976,-5.600006 -5.299988,-8.5c-0.700012,-1.199997 -2.399994,-0.199997 -1.899994,1.100006c1.5,3.299988 2.899994,6.599991 4.100006,10c0.199982,0.599991 0.399994,1.199997 0.599976,1.799988c-2.799988,-1 -5.5,-2 -8.299988,-3c-2.100006,-3.299988 -4.299988,-6.5 -6.299988,-9.899994c-2,-3.300003 -3.5,-7.300003 -6.300018,-10c-0.199982,-0.199997 -0.5,-0.100006 -0.5,0.199997c0,3.900009 1.800018,7.699997 3.200012,11.300003c1.100006,3.100006 2.299988,6.300003 3.5,9.399994c-0.100006,0.100006 -0.200012,0.300003 -0.300018,0.400009c-1.199982,2.199997 -2.299988,4.5 -3.5,6.699997c-1.299988,-3.100006 -3.099976,-6 -4.699982,-8.899994c-2.899994,-5 -5.100006,-10.400009 -8,-15.400009c-0.300018,-0.599991 -1.300018,-0.199997 -1.100006,0.5c2,5.400009 4.100006,10.800003 5.399994,16.5c1.300018,5.300003 1.399994,10.699997 3.700012,15.800003c0.100006,0.199997 0.199982,0.300003 0.199982,0.399994c-1.099976,2.200012 -2.199982,4.300003 -3.199982,6.5c-4.600006,-12.099991 -11.600006,-23.899994 -16.899994,-35.399994c-0.5,-1.100006 -2.300018,-0.300003 -2,0.800003c3,11.800003 5.199982,24.5 9.099976,36.300003c-2,-3.200012 -3.799988,-6.5 -5.399994,-10c-3.799988,-10.100006 -8.399994,-20 -12,-29.700012c-12.699982,-34.499992 -13.299988,-72.699997 -5.799988,-108.399994c32.600006,30 78,40.5 111.899994,69.199989c35.100006,29.900017 53.200012,71.200005 61.100006,115.600014zm-162.299988,15.300003c-0.799988,2.5 -1.5,5 -2.199982,7.5c-3.600006,-8.099991 -8.400024,-15.5 -14.600006,-22c-0.600006,-0.699997 -1.600006,0.199997 -1.200012,0.900009c5,9.899994 9.399994,20 13.399994,30.399994c-0.599976,2.899994 -1.199982,5.800003 -1.699982,8.699997c-1.700012,-3.699982 -3.700012,-7.300003 -5.700012,-10.899994c-5.100006,-9.100006 -9.600006,-18.5 -14.399994,-27.699997c-0.600006,-1.100006 -2.600006,-0.300003 -2.100006,0.899994c3.399994,8.399994 6.899994,16.899994 9.5,25.600006c1.700012,5.599991 3,11.199997 4.800018,16.699997c-6.300018,-13.5 -14.100006,-26.5 -22,-37.900009c-0.700012,-1.100006 -2.700012,-0.400009 -2.200012,0.899994c6.700012,18.100006 13.100006,37.300003 20.799988,55.400009c-8.600006,-18 -18.899994,-35.400009 -29,-51.800003c-0.699982,-1.099991 -2.799988,-0.399994 -2.199982,0.900009c7.199982,17.199997 15.100006,34.100006 21.199982,51.799988c0.200012,0.700012 0.5,1.400024 0.700012,2.200012c-9.299988,-17.200012 -18.799988,-34.300003 -27.799988,-51.600006c-0.5,-1 -2.200012,-0.300003 -1.800018,0.800003c4.200012,10.100006 8.399994,20.199997 12.600006,30.300003c-0.200012,0 -0.5,0.100006 -0.700012,0.200012c-3.899994,-8.900024 -8.399994,-17.700012 -13.5,-26.300018c-25.499985,-43 -60.799988,-87.300003 -40.399994,-139.499992c4.900009,1.699997 10.800003,7.899994 12.199997,9.199997c12.400009,11.699997 23.800003,24.499992 34.400009,37.900002c21.799988,26.999985 35.199982,57.499985 51.899994,87.399994zm-73,-3.200012c15.200012,23.699997 26.300018,47.199982 32.800018,74.699982c2.699982,11.600006 5.399994,24.5 10.5,35.900024c-0.300018,-0.200012 -0.5,-0.300018 -0.800018,-0.5c-17.100006,-21 -33.799988,-41 -46.599991,-65.100006c-0.5,-0.899994 -2.100006,-0.300018 -1.700012,0.699982c8.500015,22.600006 19.600021,45.700012 35.400009,64.400024c-1.799988,-0.799988 -3.700012,-1.600006 -5.5,-2.399994c-49.100006,-52.600006 -73.800003,-119.400009 -65.800003,-192c0.399994,-3.600006 1,-7.100006 1.600006,-10.700012c0.699982,33.5 22.899979,68.200012 40.099991,95zm-111,55.399994c14.100006,10.899994 28.699997,20.799988 44.900009,28.100006c-9,-1.5 -18,-2.899994 -27,-4.300018c-21,-11.899994 -39.900002,-24.099976 -55.800003,-43c-11.900002,-14.099991 -20.400002,-30.699982 -25.700005,-48.199982c12.800003,25.099991 36.800003,42 62.799995,54c35.800003,16.600006 74.100006,25.699982 108.699997,44.899994c2.899994,3.600006 6,7.200012 9.200012,10.600006c-15.800018,-8.100006 -33.700012,-12.5 -50.600006,-16.899994c-23.100006,-6 -43.900009,-16.400024 -65.199997,-26.800018c-1.100006,-0.499969 -2.300003,0.800018 -1.300003,1.600006zm-16.300003,13.600006c-5.200005,1.299988 -10.100006,2.299988 -15.300003,2.299988c-9.599998,-1.699982 -19.199997,-3.600006 -28.800003,-5.799988c2.900002,-0.700012 5.900002,-1.5 8.800003,-2.100006c7.900002,-1.600006 16.099998,-1.899994 24.099998,-3.100006c3.599998,3.100006 7.400002,6.000031 11.200005,8.700012zm102.599991,31.600006c27,6.399994 52.699982,16.299988 76.899994,30c22.100006,12.5 41.600006,28.700012 62.200012,43.399994c-7.600006,2.600006 -14.899994,5.200012 -22,7.800018c-18.5,6.699982 -37.200012,13.899994 -55.400024,22.199982c-0.199982,-0.100006 -0.299988,-0.100006 -0.5,-0.199982c-20.299988,-4.200012 -39.399979,-6.700012 -58.599976,-15.200012c-1.600006,-0.700012 -3,1.5 -1.399994,2.399994c14.5,7.700012 30.5,15.600006 46.899994,19.5c-2.5,1.200012 -4.899994,2.5 -7.299988,3.700012c-11.800018,-4 -24.200012,-5.700012 -36.000015,-9.700012c-14.5,-4.799988 -27.699997,-13.399994 -40.300003,-21.799988c-0.899994,-0.600006 -1.899994,0.699982 -1.099991,1.399994c16.899994,15.5 41.399994,31.600006 65.300003,36.700012c-2.700012,1.5 -5.300003,3.099976 -7.900009,4.699982c-76.599991,-25 -143.599998,-78.899994 -175.299995,-154.100006c50.5,13.800018 103.400002,17.200012 154.499992,29.200012zm-32.099991,112.799988c10.399994,5.299988 21.199997,9.899994 32.300003,13.700012c-1.200012,4.799988 -2.300003,9.599976 -4.5,14c-0.700012,1.5 -1.800003,2.899994 -2.900009,4.299988c-4.699997,3.899994 -9.199997,7.899994 -13.5,12.200012c-5.399994,-1.400024 -9.699997,-4.100006 -12.699997,-11.200012c-4.600006,-10.899994 -2.100006,-22.199982 1.300003,-33zm-15,-8.399994c3.5,2.100006 7,4 10.5,5.899994c-5,6.399994 -7.600006,15.100006 -7.600006,23.600006c-2.599991,0.299988 -5.300003,0.600006 -7.899994,0.899994c-1.100006,0.100006 -1.600006,1.899994 -0.300003,2.100006c2.800003,0.5 5.600006,0.899994 8.399994,1.399994c0.200012,2.100006 0.600006,4.100006 1.100006,6.100006c-11.300003,-0.399994 -24.300003,-0.399994 -34.699997,2.799988c-0.699997,0.200012 -0.800003,1.300018 0,1.5c5.899994,1.300018 12,1.200012 18.099991,1.399994c6.600006,0.300018 13.100006,1.300018 19.600006,1.900024c0,0 0,0 0,0c0.899994,1.599976 1.899994,3 2.899994,4.199982c-18.5,-2 -36.899994,-0.799988 -55.599991,2c-0.800003,0.100006 -0.5,1.300018 0.199997,1.300018c19.200012,0.399994 38.300003,2.699982 57.400009,5.299988c-8.899994,0.299988 -17.699997,0.799988 -26.5,0.899994c-19.800003,0.200012 -39.699997,0.800018 -59.5,1.5c-0.900002,0 -1.099998,1.399994 -0.199997,1.600006c16.599998,2.799988 34.300003,5.399994 52.099991,6.700012c-6,1.099976 -12.100006,2.199982 -18.100006,3.399994c-32.599983,-1.800018 -65.299995,-6.100006 -97.299995,-12.200012c-3.200001,-1.299988 -6.400002,-2.600006 -9.800003,-3.600006c33.099998,-46.399963 91.099998,-68.599976 147.200005,-58.699982zm-27.600006,83.500031c38.600006,2 83.199997,3.400024 120.699997,-7.700012c10,4.299988 19.899994,9.100037 29.799988,13.900024c-16.699982,7.899963 -32.199982,16.799988 -50.100006,22.5c-0.5,0.200012 -0.5,1.099976 0.100037,1c19.599976,-2 41.699982,-6.799988 58.099976,-18.200012c0.399994,-0.299988 0.700012,-0.599976 1,-0.900024c2.600006,1.200012 5.200012,2.400024 7.700012,3.600037c-29.100006,14.299988 -57.200012,26.700012 -90.300003,29.099976c-1.300003,0.100037 -1.300003,2 0,2c34.999985,1.600037 72.399979,-4.599976 100.599991,-26.599976c3.5,1.5 7,2.899963 10.5,4.200012c-24.700012,13.599976 -47.899994,25.699951 -76.100006,31.699951c-30.699997,6.5 -62.699997,4.600037 -92.999985,-3.199951c-29.300003,-7.600037 -55.000008,-22.600037 -79.000008,-40.700012c-11.199997,-8.5 -22.400002,-17 -34.399998,-24.000031c31.10001,7.199982 62.400005,11.699982 94.400005,13.300018zm155.400009,-0.400024c-29.100006,-13.799988 -57.800003,-27.299988 -90,-29.600006c36.700012,-30.799988 79.5,-50 124.399994,-66.699982c26.300018,-9.700012 52.800018,-18.700012 80.400024,-23.5c18.299988,-3.200012 36,-3 53.5,-0.400024c0.299988,0.200012 0.599976,0.300018 1,0.300018c44.200012,5.699982 64.5,46.299988 46.599976,86.399994c-16.5,36.799988 -59.199982,52.900024 -96.5,57.799988c-42.399994,5.700012 -81.600006,-6.299988 -119.399994,-24.299988zm167.5,21.299988c11.899994,-5.099976 22.800018,-11.900024 32.300018,-20.099976c-0.400024,3.599976 -0.400024,7.299988 0.199982,10.899963c0.200012,1.200012 2.000031,0.799988 2.000031,-0.299988c0.199951,-5.400024 1.199951,-10.700012 3.199951,-15.700012c1.5,-1.5 2.900024,-3 4.300049,-4.599976c0.699951,6.599976 2.199951,13.200012 3.599976,19.5c0.200012,0.700012 1.299988,0.599976 1.299988,-0.200012c-0.299988,-8.900024 0.799988,-17.700012 0.900024,-26.5c1.099976,-1.5 2.200012,-3.100006 3.200012,-4.700012c1.099976,10.400024 3.599976,21.200012 5.599976,30.900024c0.099976,0.599976 0.900024,0.399963 1,-0.100037c1.299988,-14.099976 3.5,-30.099976 1.200012,-44.199982c-0.100037,-0.399994 -0.200012,-0.699982 -0.299988,-1c0.299988,-0.699982 0.5,-1.299988 0.799988,-2c4.700012,17.200012 10.099976,34.100006 15.700012,51.000031c0.399963,1.099976 1.899963,0.599976 1.699951,-0.5c-2.799988,-17.700012 -5.699951,-35.300018 -9.299988,-52.800018c1.700012,1.899994 3.700012,3.699982 5.700012,5.5c5.299988,12.799988 10.899963,25.199982 14.899963,38.600006c0.5,1.599976 2.700012,0.899963 2.400024,-0.700012c-1.700012,-10.299988 -4,-20.799988 -7.599976,-30.700012c3.699951,2.399994 7.599976,4.600006 11.199951,6.5c1.300049,4.700012 4.5,9 6.900024,13.100037c0.400024,0.699951 1.5,0.199951 1.299988,-0.500061c-1.099976,-3.199951 -1.599976,-6.499969 -2.299988,-9.699951c2.200012,1 4.299988,1.899994 6.200012,2.599976c1.799988,0.700012 3.599976,1.300018 5.399963,2c0.600037,1.400024 1.200012,2.900024 1.800049,4.300018c0.699951,1.699982 3.599976,1.100006 2.899963,-0.800018c-0.299988,-0.799988 -0.5,-1.599976 -0.799988,-2.299988c11,3.200012 22.400024,4.599976 34,4.700012c0,0 0,0.099976 0.099976,0.099976c10.300049,14.400024 23.300049,25.100037 37.900024,33c-9,20.200012 -23.299988,32.599976 -41.900024,45.099976c-14.799988,10 -29,20.300049 -38.5,35.600037c-25.099976,-6.299988 -49.699951,-14.400024 -73.699951,-24.100037c-28.400024,-11.5 -50.5,-23.199951 -58.600006,-53.399963c8.699982,-2.200012 17.199982,-5 25.299988,-8.5zm158.600006,-28.099976c4.200012,-0.200012 8.400024,-0.700012 12.599976,-1.200012c0.200012,0.200012 0.5,0.5 0.800049,0.700012c36.399963,24.099976 83.699951,43.5 127.399963,29.900024c0.700012,-0.200012 0.600037,-1.400024 -0.200012,-1.400024c-42.599976,3.400024 -77.199951,-13.299988 -113.5,-31.799988c2.800049,-0.600006 5.5,-1.300018 8.300049,-2c10.899963,6.599976 23.200012,9.899963 34.799988,15c1,0.399963 1.899963,-0.900024 0.899963,-1.5c-8.799988,-4.900024 -16.699951,-11.200012 -25.299988,-16.5c3.799988,-1.200012 7.600037,-2.600006 11.400024,-4.100006c19.5,-1.700012 38.400024,-3.300018 58.299988,-2c26.900024,1.799988 53.599976,6.600006 80.5,8.899994c33.299988,3 69,0.899994 101.900024,-8.899994c-2.300049,1.799988 -4.600037,3.5 -6.800049,5.299988c-29.299988,23.199982 -59.899963,38.100006 -96.599976,45.800018c-66.5,14.099976 -143.5,13.299988 -194.5,-36.200012zm322.200012,-31.600006c-18.200012,5.800018 -36.400024,11.200012 -55.299988,14.5c-27.100037,4.800018 -54.5,4.100006 -81.799988,1.300018c-15.100037,-1.5 -31.600037,-4.300018 -48.400024,-6.400024c-14.900024,-4.599976 -31,-7.699982 -46.700012,-8.5c1.299988,-0.899994 2.5,-1.799988 3.700012,-2.699982c9.400024,2.5 19.400024,1.799988 29.200012,2c11.5,0.199982 23,1.100006 34.399963,0.600006c0.800049,0 1.100037,-1.300018 0.200012,-1.5c-11.200012,-2.200012 -22.599976,-3.100006 -33.899963,-4.700012c-7.200012,-1 -14.600037,-2.600006 -21.900024,-2.899994c1.099976,-0.899994 2.099976,-1.899994 3.099976,-2.800018c13.400024,1.600006 27,1.100006 40.5,1.800018c16.100037,0.899994 32.400024,3.399994 48.5,2.899994c1.5,0 1.700012,-2.100006 0.300049,-2.5c-14,-4.600006 -28.900024,-5.700012 -43.400024,-7.100006c-12.799988,-1.199982 -26.200012,-2.5 -39.299988,-1.799988c1.399963,-1.5 2.799988,-3.100006 4.200012,-4.700012c25.199951,1.300018 50.599976,1.600006 75.799988,2c0.299988,0 0.5,-0.299988 0.599976,-0.600006c0,0 0,0 0,0c0.400024,0.200012 0.700012,-0.399994 0.299988,-0.599976c-0.199951,-0.100006 -0.299988,-0.200012 -0.5,-0.200012c-0.199951,-0.100006 -0.399963,0 -0.5,0.200012c-23.099976,-4.800018 -47.199951,-7.600006 -70.899963,-7.200012c1.299988,-1.799988 2.5,-3.600006 3.700012,-5.399994c12.399963,0.699982 25.099976,-0.5 37.5,-1.399994c1.399963,-0.100006 1.299988,-2 0,-2.100006c-11.200012,-1.100006 -22.700012,-2.399994 -33.900024,-2.399994c0.5,-0.800018 1,-1.700012 1.400024,-2.600006c4.899963,0.5 9.899963,0 14.699951,-0.600006c1.400024,-0.200012 2.100037,-2.399994 0.400024,-2.700012c-4.099976,-0.699982 -8.400024,-1.299988 -12.700012,-1.299988c2.900024,-6 5.299988,-12.399994 7.100037,-18.899994c39.399963,-18.399994 83.799988,-24.5 126.699951,-17.5c39.700012,6.5 84.900024,28.5 94,70.899994c-13.400024,1.399994 -25.599976,6.299988 -37.099976,12.899994z" class="st0"/>
  <path id="svg_2" d="m365.100006,527.700012c-9.899994,-6.599976 -22.299988,-10.299988 -33,-15.5c-12.199982,-5.899994 -24,-13.200012 -34.699982,-21.600006c-1.100006,-0.799988 -2.600006,0.5 -1.5,1.5c17.599976,16.800018 42.599976,38.100006 68.399994,38.500031c1.699982,0.099976 2.099976,-2.000061 0.799988,-2.900024z" class="st0"/>
  <path id="svg_3" d="m407.200012,529.400024c-29.600006,-11.799988 -57.799988,-24.200012 -83.399994,-43.5c-0.899994,-0.700012 -2,0.799988 -1.200012,1.600006c22.899994,22.799988 50.899994,41.399994 82.899994,48.100006c4.100006,0.899963 5.5,-4.700012 1.700012,-6.200012z" class="st0"/>
  <path id="svg_4" d="m433.100006,530.200012c4.600006,1.400024 6.399994,-5.599976 2,-7.099976c-23.100006,-8.100037 -44.799988,-17.200012 -65.100006,-31.200012c-0.799988,-0.600006 -1.799988,0.699982 -1,1.299988c18.799988,16 40.299988,29.700012 64.100006,37z" class="st0"/>
  <path id="svg_5" d="m453,526.900024c2.700012,1.5 5.700012,-2.200012 3.299988,-4.299988c-10.199982,-9.200012 -23.399994,-15.600006 -35.599976,-21.600006c-0.800018,-0.400024 -1.800018,0.699982 -1,1.299988c10.699982,8.399994 21.299988,17.999969 33.299988,24.600006z" class="st0"/>
  <path id="svg_6" d="m466.899994,518.700012c2.399994,2 5.199982,-1.700012 2.600006,-3.400024c-5.5,-3.599976 -11,-6.899963 -16.400024,-10.599976c-1,-0.700012 -2.199982,0.899994 -1.199982,1.600006c5.100006,3.899994 10,8.199982 15,12.399994z" class="st0"/>
  <path id="svg_7" d="m697.400024,475.299988c-2.099976,1.799988 0.599976,4.600006 2.799988,3.600006c22.5,-10.300018 37.400024,-32.800018 43.600037,-56c0.399963,-1.399994 -1.700012,-2.300018 -2.300049,-1c-10.599976,21.800018 -26.400024,37.600006 -44.099976,53.399994z" class="st0"/>
  <path id="svg_8" d="m669.799988,487.200012c-1,1 0.299988,2.600006 1.5,2c22.299988,-11.700012 36.700012,-30.200012 47.299988,-52.899994c0.5,-1 -0.799988,-1.800018 -1.5,-0.899994c-13.5,18.899963 -30.799988,35.499969 -47.299988,51.799988z" class="st0"/>
  <path id="svg_9" d="m648.400024,495.299988c17.400024,-9 31.099976,-24.600006 39.799988,-42c0.299988,-0.700012 -0.5,-1.399994 -1.099976,-0.799988c-13.200012,13.899994 -27.400024,26.5 -41.100037,39.799988c-1.599976,1.5 0.5,4 2.400024,3z" class="st0"/>
  <path id="svg_10" d="m631.400024,493.299988c13.400024,-4.899994 22.200012,-18.799988 27.700012,-31.200012c0.5,-1.199982 -1.100037,-2.199982 -1.799988,-1c-3.300049,5.800018 -7.5,10.900024 -12.400024,15.5c-5,4.600006 -11,7.900024 -16.200012,12.200012c-2.100037,1.600006 0.099976,5.400024 2.700012,4.5z" class="st0"/>
  <path id="svg_11" d="m620.599976,488.299988c4.799988,-4.200012 9.400024,-8.700012 14.299988,-12.799988c1,-0.800018 -0.299988,-2.5 -1.399963,-1.800018c-5.100037,3.800018 -10.5,7.200012 -15.700012,11c-2.599976,2.000031 0.299988,5.800018 2.799988,3.600006z" class="st0"/>
  <g id="svg_12"/>
  <g id="svg_13"/>
  <g id="svg_14"/>
  <g id="svg_15"/>
  <g id="svg_16"/>
  <g id="svg_17"/>
  <g id="svg_18"/>
  <g id="svg_19"/>
  <g id="svg_20"/>
  <g id="svg_21"/>
  <g id="svg_22"/>
  <g id="svg_23"/>
  <g id="svg_24"/>
  <g id="svg_25"/>
  <g id="svg_26"/>
 </g>
</svg>