<svg width="1440" height="900" xmlns="http://www.w3.org/2000/svg">
 <style type="text/css">.st0{fill:#F77487;}</style>

 <g>
  <title>background</title>
  <rect x="-1" y="-1" width="1442" height="902" id="canvas_background" fill="none"/>
 </g>
 <g>
  <title>Layer 1</title>
  <path class="st0" d="m1620.300049,727.5c-7.600098,-32.799988 -28.200073,-57.799988 -59.600098,-72.599976c17.400024,-18.700012 20.800049,-44 24,-68.5c3.199951,-24.100037 6.199951,-46.800049 21.5,-64c1.800049,-2 2.5,-4.600037 1.900024,-7.100037c-0.599976,-2.599976 -2.5,-4.699982 -5.099976,-5.799988c-10.800049,-4.399994 -22.600098,-6.700012 -35,-6.700012c-17.900024,0 -35.699951,4.800018 -50.800049,13.400024c8.699951,-16 18.600098,-31.300018 30.5,-47.200012c3.699951,-5 4.699951,-9.5 2.800049,-13.200012c-2.5,-4.899994 -9.100098,-7.199982 -20.699951,-7.199982c-9.100098,0 -18.800049,1.399994 -22.400146,1.899994l-0.899902,0.100006c-37.699951,5.199982 -76.300049,15.899994 -112.5,31c15.199951,-26.200012 25.300049,-55.899994 30.899902,-90.200012c3.200073,-19.299988 4.200073,-40.099976 3.200073,-62c-0.5,-10.600006 -1.900024,-21.100006 -3.099976,-29.100006c-0.199951,-1.599976 -0.400024,-3.299988 -0.699951,-5c-1,-7.599976 -2.100098,-16.299988 -5.5,-22.799988c-2.900146,-5.5 -7.5,-8.399994 -13.300049,-8.399994c-7.5,0 -15.600098,4.899994 -22,8.799988c-1.900024,1.100006 -3.699951,2.200012 -5.100098,3c-24.5,12.899994 -44,24.300018 -61.299927,35.800018c-27.699951,18.299988 -49.799927,38.299988 -65.799927,59.599976c-7.200073,7.900024 -13.600098,16.5 -18.5,25.100006c-1.700073,-0.399994 -3.300049,-0.600006 -4.900146,-0.699982c-6.099854,-0.300018 -11.299927,1 -15.699951,2.699982c-2.399902,-14.799988 -8.300049,-29.899994 -17.899902,-45.799988c-5.600098,-9.300018 -12.300049,-17.700012 -19.300049,-26.299988c-0.800049,-1 -1.800049,-2.400024 -3,-4.100006c-7.100098,-10 -13.600098,-18.200012 -20.400024,-18.200012c-36.199951,0 -73.299927,28.200012 -93.099976,57.5c-0.199951,-0.200012 -0.300049,-0.299988 -0.5,-0.5c-18.5,-18.799988 -41.599976,-30.600006 -64,-41.899994c-21.400024,-10.899994 -43.599976,-22.100006 -60.800049,-39.399994c-1.599976,-1.600006 -3.799927,-2.5 -6.099976,-2.5c-2.400024,0 -4.699951,1 -6.099976,2.799988c-24.900024,30.600006 -36.300049,68.5 -32.300049,106.100006c-0.399963,-0.399994 -0.699951,-0.899994 -1.099976,-1.300018c-6.099976,-7.299988 -13,-14.699982 -22.399963,-24.099976c-1,-1 -2.200012,-2.400024 -3.5,-3.800018c-4.900024,-5.399994 -11,-12.199982 -17.5,-14c-2,-0.600006 -4,-0.799988 -5.799988,-0.799988c-14.300049,0 -18.100037,15.399994 -20.800049,26.699982c-0.299988,1.200012 -0.599976,2.400024 -0.899963,3.600006c-7.5,28.700012 -9.5,59.600006 -5.700012,90c-13.099976,-6.100006 -27.099976,-7.699982 -41.5,-9c-9.099976,-0.799988 -18.299988,-1.5 -27.400024,-2.299988c-19.699951,-1.600006 -40,-3.300018 -60,-5.300018l-0.700012,0c-2.299988,0 -4.5,1.100006 -6.200012,2.900024c-1.599976,1.799988 -2.299927,4 -2.099976,6.099976c3.5,29.300018 17.099976,59.799988 36.900024,83c-6.400024,0.900024 -13.400024,2.5 -21.099976,4.900024l-0.300049,0.099976c-2.5,0.700012 -7.399963,2.200012 -11,4.700012c-2,0.700012 -3.799988,2.099976 -4.699951,4c-1,1.900024 -1.100037,4.099976 -0.300049,6.099976c20.700012,49.400024 54,92.800049 94.900024,123.800049c-21.900024,-2 -42.599976,1.199951 -63.900024,9.599976c-28.099976,11.099976 -53.299988,32.400024 -70.900024,60c-1.399963,2.200012 -1.599976,5 -0.599976,7.599976c1,2.5 3.200012,4.400024 5.700012,5c22.700012,5.400024 41.600037,19.800049 59.899963,33.800049c4.200073,3.199951 8.5,6.5 12.800049,9.599976c25,18.299988 54,31 86.099976,37.799988c13.900024,2.900024 28.600037,4.400024 43.700012,4.400024c48.600037,0 93.900024,-14.799988 124.5,-40.700012c28.299988,8.400024 60.399963,10.200012 89.500061,4.900024c3.699951,23 24.099976,39.099976 41.099976,48.799988c30.099976,17.099976 66.199951,27.299988 100.699951,35.799988c0.700073,0.200012 1.400024,0.299988 2.200073,0.299988c3.199951,0 6.099854,-1.700012 7.599854,-4.299988c7.100098,-12.700012 21.300049,-22.5 36.400146,-32.900024c19.099854,-13.199951 38.899902,-26.799988 44.5,-47.699951c22.299927,9.199951 49.699951,13.899963 81.599854,13.899963l0,0c16.100098,0 33.200073,-1.099976 52.200073,-3.5c35.700073,-4.399963 67.299927,-14.200012 93.900024,-29.200012c11.599976,-6.5 22.300049,-15 32.599976,-23.099976c20.400024,-16.099976 39.700073,-31.400024 65.700073,-33.099976c2.599854,-0.200012 5,-1.400024 6.5,-3.5c1.099976,-2.400024 1.599976,-5 1,-7.400024zm-795.500061,-221.799988c-0.100037,0 -0.100037,0 -0.200012,-0.100006c-1.099976,-0.300018 -1.700012,1.299988 -0.799988,1.799988c0.700012,0.399994 1.299988,0.800018 1.899963,1.200012c0.400024,1.299988 0.900024,2.499969 1.300049,3.800018c-3.200012,-0.300049 -6.400024,-0.600037 -9.600037,-1.300049c-0.799988,-0.199982 -1.099976,1 -0.299988,1.200012c2.799988,0.799988 5.5,1.5 8,3.100037c1.299988,0.799988 2.700012,1.599976 4,2.399963c0.400024,1.100037 0.900024,2.299988 1.299988,3.400024c-2.5,-0.299988 -5.099976,-0.700012 -7.599976,-1.200012c-5.299988,-1.099976 -10.600037,-2.400024 -15.799988,-3.799988c-1.100037,-0.299988 -1.5,1.299988 -0.5,1.700012c5.599976,2.199951 11.199951,4.599976 16.699951,7c3.900024,1.699951 7.400024,4 11.300049,5.699951c0.199951,0.5 0.399963,0.900024 0.699951,1.400024c-12.699951,-4.200012 -26.299988,-6.799988 -39.199951,-9.700012c-1.400024,-0.299988 -1.800049,1.600037 -0.600037,2.100037c10,4.099976 19.600037,9 29.400024,13.599976c-14.299988,-3.900024 -28.600037,-7.900024 -42.799988,-12.5c-0.700012,-0.200012 -1,0.900024 -0.300049,1.099976c15.800049,6.5 31.200012,13.5 46.600037,20.700012c-3.600037,-1.099976 -7.200012,-2 -10.900024,-2.899963c-50.5,-20.400024 -108.899963,-30.300049 -130.099976,-85.700012c21.799988,1.599976 43.5,3.599976 65.299988,5.5c22.099976,2 46.900024,1.899994 65.5,15.599976c1.700012,8.900024 3.900024,17.5 6.700012,25.900024zm93.600037,-127c6.199951,33.099976 32.199951,64.799988 23.199951,99.199982c-4.099976,-11.100006 -9.399963,-22 -15.5,-32.5c-5.5,-17.800018 -10,-35.699982 -11.899963,-54.300018c-0.100037,-1.199982 -1.799988,-1.199982 -1.799988,0c-0.400024,12.5 0.5,24.900024 2.899902,37c-3.799927,-5.699982 -7.799927,-11.299988 -11.899902,-16.699982c0,-0.199982 0,-0.399994 0,-0.600006c-7.800049,-36.399994 -2.300049,-74.5 16.199951,-106.399994c-5.699951,24.399994 -5.800049,49.299988 -1.199951,74.300018zm633.299927,236.200012c-5.699951,12.599976 -13.699951,22.699951 -21.5,33.899963c-0.800049,-0.200012 -1.699951,-0.399963 -2.5,-0.599976c4.300049,-5.700012 7.300049,-12.200012 9.400024,-19c0.299927,-1.100037 -1.300049,-1.799988 -1.900024,-0.799988c-3.900024,7.099976 -9,12.899963 -14.900024,18.299927c-29,-5.199951 -60.699951,-3.599976 -89.5,2.700073c1.5,-1 2.900024,-2.100037 4.400024,-3.200073c29.900024,-5.399963 56.099976,-32.599976 76.400024,-53.199951c12.699951,-12.900024 25,-26.200012 38.299927,-38.5c12.400024,-11.400024 26,-20.599976 40,-29.599976c-24.099976,39.299927 -11,93 -44,128.399963c-2.199951,-0.799988 -4.399902,-1.5 -6.599976,-2.100037c6.900024,-10.599976 11.300049,-23.5 14.5,-35.399963c0.400024,-1.200012 -1.5,-2.099976 -2.099976,-0.899963zm-33.5,-40.700012c-3.800049,3.899963 -7.599976,7.799988 -11.400024,11.700012c-8.5,4.900024 -17,9.799988 -25.599976,14.5c0.800049,-0.900024 1.599976,-1.700012 2.5,-2.599976c8.199951,-8.200073 17.099976,-15.600037 26.699951,-22.200073c1,-0.699951 0.200073,-2.099976 -1,-1.599976c-10.399902,4.5 -22.199951,10.099976 -32.399902,17.300049c1.299927,-2.5 2.599976,-5 3.799927,-7.600037c4.900024,-3.200012 9.700073,-6.899963 14.200073,-10.600037c1,-0.799927 -0.100098,-2.599976 -1.300049,-2.099976c-2.900024,1.200012 -5.800049,2.5 -8.699951,3.800049c0.799927,-1.800049 1.699951,-3.700073 2.5,-5.5c0.299927,-0.100037 0.5,-0.200073 0.799927,-0.400024c1.700073,-1.5 3.700073,-2.700012 5.800049,-3.700012c0.900024,-0.5 0.5,-2.100037 -0.5,-2c-1.200073,0.100037 -2.400024,0.299988 -3.599976,0.600037c3.299927,-7.400024 6.399902,-14.600037 9.399902,-21.300049c26.900024,-23 59.400024,-31.799988 93.900024,-23.5c-30.200073,8 -54,33.599976 -75.099976,55.200012zm8.699951,-97.300018c-15.099854,19.800018 -26,41.799957 -36.299927,64.300018c-9.900024,21.599976 -19.5,43.299988 -32.099976,63.5c-12.800049,20.5 -29.199951,35.299988 -47.800049,50.200012c-6.699951,2.099976 -13.099976,4.399963 -19.199951,7c-0.300049,-11.300049 12.699951,-15.700012 20.5,-21.600037c7.300049,-5.599976 13.599976,-12.299988 19.5,-19.299988c10.5,-12.5 17.899902,-27.900024 23.199951,-43.299988c0.400024,-1.200012 -1.5,-2 -2,-0.900024c-10.5,20.900024 -25.300049,38 -43.5,52.600037c-6,4.799988 -13.899902,9.5 -19.300049,15.399963c-0.099854,-2.099976 -0.299927,-4.200012 -0.599854,-6.200012c14.299927,-9.099976 26.299927,-22.5 35.899902,-36.299988c0.800049,-1.099976 -1,-2.399963 -1.899902,-1.399963c-10.200073,11.599976 -21.800049,20.199951 -34.5,28.299988c-0.100098,-0.5 -0.100098,-1.100037 -0.200073,-1.600037c-0.200073,-1.299988 -0.799927,-2.5 -0.900024,-3.799988c0,-0.200012 -0.199951,-0.399963 -0.399902,-0.5c-0.100098,-1 -0.400146,-2 -1.100098,-2.599976c-12.899902,-11.299988 -28.300049,-15 -44.399902,-13.900024c30.399902,-15.899963 55.599854,-39.299988 81,-63.099976c18,-16.900024 36,-33.800018 56.099854,-48.300018c17.300049,-12.5 36.400146,-21.100006 55.800049,-29.699982c-2.800049,4.799988 -7.600098,10.899994 -7.800049,11.199982zm-384.800049,199.600006c0.700073,-0.299988 1.400146,-0.799988 2,-1.799988c0.300049,-0.5 0.600098,-1 0.900146,-1.5c17.599854,-14.700012 36.599854,-23.700012 60,-26.600037c23,-2.799988 46.399902,0.600037 69.299927,3c37,3.900024 76.200073,4.100037 106.700073,-19.099976c1.399902,26.700012 -2.700073,50.200012 -18.600098,73.299988c-10.300049,15 -24.800049,26.799988 -40.699951,35.799988c-0.600098,0.200012 -1.100098,0.5 -1.5,0.900024c-8.100098,4.5 -16.5,8.299988 -25,11.5c-26.900024,10.099976 -56.600098,12.700012 -84.699951,6.5c-14.900146,-3.299988 -29.100098,-10.099976 -40.900146,-19.900024c-7.699951,-6.399963 -11.299927,-14.5 -16.199951,-22.299988c0.100098,-1 0.199951,-1.899963 0.199951,-2.899963c0.400146,-12.600037 -4,-25.800049 -11.5,-36.900024zm195.700073,-45.200012c-17.599976,2.5 -34.799927,3.700012 -52.200073,4.299988c31,-14 63.200073,-34 91.200073,-12.199951c-17.799927,13.5 -38.700073,18 -60.900024,18.699951c8,-2 15.699951,-4.699951 23,-8.099976c1.699951,-0.700012 0.400024,-2.900024 -1.099976,-2.700012zm175.099976,-164.5c-31.299927,11.600006 -58.899902,36.700012 -82.399902,58.200012c-28.199951,25.700012 -55.400024,53.400024 -87.600098,73.900024c-0.099854,0 -0.199951,0 -0.299927,0c-17.099976,3.299988 -33.900024,9.699951 -50.599976,14.699951c-2.600098,0.800049 -5.100098,1.5 -7.699951,2.300049c15.699951,-7.599976 31,-15.900024 45.899902,-24.300049c1,-0.5 0.300049,-2.199951 -0.800049,-1.799927c-16.899902,6.099976 -34.099854,12 -51.199951,18.299927c19.600098,-11.199951 39.600098,-21.599976 58.900024,-33.299927c1.200073,-0.700073 0.400024,-2.800049 -1,-2.300049c-20.099976,7.800049 -39.400024,17.599976 -59,26.400024c-2,0.900024 -4,1.799988 -6.099976,2.699951c0.699951,-0.599976 1.399902,-1.099976 2.099976,-1.699951c11.799927,-8.900024 24.099976,-16.599976 36.299927,-24.800049c0.5,-0.299927 0.200073,-1.199951 -0.399902,-1c-21,6.300049 -47.199951,16.900024 -65.699951,32.300049c1.099854,-1.800049 2.199951,-3.700012 3.199951,-5.5c29.899902,-29.200012 61.099976,-56.400024 97,-78.5c41.599854,-25.400024 87.5,-43.400024 135,-54.100037c11.599854,-2.599976 23.299927,-4.5 35.099854,-6.199982c4.5,-0.600006 8.900146,-1.100006 13.400146,-1.600006c-5,1.299988 -9.800049,3.399994 -14.100098,6.299988zm-136.899902,27.300018c-3.700073,1.699982 -7.300049,3.5 -10.900146,5.300018c11.400146,-16.900024 17.200073,-35.300018 21.400146,-57.300018c0.199951,-1 -1.300049,-1.5 -1.600098,-0.399994c-6.099976,23.099976 -20.399902,46.599976 -35.099976,65.899994c-5.099976,2.800018 -10.099976,5.800018 -15.099976,8.800018c19.699951,-21.400024 31.599976,-47.400024 39.199951,-77.100037c6.100098,-23.899963 8.400024,-48.799988 10.699951,-73.299988c1.200073,-12.399994 2.200073,-24.899994 3.5,-37.299988c1.700073,-16.299988 0.800049,-42.600006 19,-50.100006c0.100098,0 0.100098,-0.100006 0.200073,-0.100006c2.200073,3.100006 2.799927,9.200012 3.200073,10.800018c15.699951,70.299988 -1.400146,142.299988 -34.5,204.799988zm12.899902,-209.600006c1.400146,-0.700012 2.800049,-1.5 4.200073,-2.200012c-8,8.600006 -9.900024,22.800018 -11.700073,34.700012c-4.099854,26.799988 -5.299927,54.100006 -8.599854,81c-5.600098,46 -20.200073,98.200012 -56.300049,130c14.199951,-19.5 25.300049,-42.700012 32.399902,-64c0.300049,-1 -1.099854,-1.5 -1.699951,-0.700012c-9,13.5 -17.5,27.300018 -27.199951,40.400024c-5.699951,7.700012 -12,15 -18.300049,22.399963c1.699951,-3.299988 3.300049,-6.5 5,-9.699951c10.199951,-19.900024 18.900024,-41.300018 26.100098,-62.400024c0.299927,-0.899994 -1,-1.399994 -1.5,-0.600006c-10.5,17.700012 -20.800049,35.5 -31.400146,53.100006c-5.599854,9.299988 -11.799927,18.700012 -17.699951,28.200012c2.600098,-6.600037 5.300049,-13.200012 8.100098,-19.700012c9,-21.200012 18.5,-42 28.099854,-62.899994c0.600098,-1.300018 -1.099854,-2.300018 -1.899902,-1.100006c-13.699951,20.200012 -27.699951,42.100006 -39.400024,64.900024c10,-27.400024 20.400024,-54.500031 32.299927,-81.200012c0.300049,-0.700012 -0.599854,-1.200012 -1,-0.600006c-14,21.399994 -26,42 -34.399902,64.699982c0.099976,-4 0.199951,-7.899994 0.099976,-11.899994c9.099976,-16.600006 14.5,-35.199982 24,-51.699982c0.599976,-1 -0.900024,-2.200012 -1.700073,-1.300018c-8.899902,10.100006 -18,21.800018 -23.699951,34.600006c-0.399902,-3.299988 -0.899902,-6.600006 -1.5,-9.899994c4.300049,-8 7.5,-16.700012 11.699951,-24.800018c0.300049,-0.5 -0.399902,-1.199982 -0.899902,-0.699982c-4.600098,5.299988 -9.199951,10.699982 -12.800049,16.699982c-0.300049,-1 -0.5,-2 -0.800049,-3c1.200073,-1.699982 1.600098,-3.899994 2.300049,-5.899994c1,-2.899994 2,-5.799988 3,-8.699982c0.300049,-0.800018 -0.800049,-1.100006 -1.199951,-0.5c-1.699951,2.199982 -3.400024,4.5 -5.100098,6.699982c-0.399902,0.5 -0.799927,0.899994 -1.199951,1.399994c-1,-3 -2.099976,-6 -3.399902,-8.899994c-3.800049,-8.899994 -11,-19.299988 -20.100098,-25.5c3.5,-5.5 6.900024,-11.100006 10.5,-16.5c17.400024,-23.199982 38.400024,-43.199982 62.100098,-60.399994c15,-10.899994 30.899902,-20.299988 46.899902,-29.5c8.899902,-4.899994 17.800049,-9.700012 26.699951,-14.5zm-127.300049,171.5c13.700073,60.900024 -6.699951,133.099976 -49.899902,177.599976c-0.900024,0.900024 -1.199951,2 -1.199951,2.900024c-3.900146,0.200012 -7.700073,0.5 -11.5,1c6.899902,-12 11.699951,-25.199951 15.299927,-38.400024c0.400024,-1.399963 -1.599976,-1.899963 -2.200073,-0.599976c-5.899902,14.5 -13.899902,27.400024 -22.199951,40.5c-3.699951,0.799988 -7.300049,1.700012 -10.800049,2.900024c13.800049,-25.600037 22.100098,-53.900024 26.600098,-82.5c0.300049,-1.600037 -2.100098,-2.400024 -2.5,-0.700012c-7.400024,31.5 -20.400024,60.200012 -36.199951,88.299988c-4.300049,2.200012 -8.5,4.900024 -12.5,8.099976c21.5,-44.5 32,-95.599976 33.5,-144.199951c0,-1.100037 -1.5,-1 -1.600098,0c-7.199951,56.799988 -25.099976,107.699951 -49,159.400024c-2.399902,-2.700073 -4.899902,-5.300049 -7.699951,-7.5c15.5,-36.400024 23.399902,-75.600037 25.699951,-115c0.100098,-1.5 -2.099976,-1.400024 -2.300049,0c-2.599854,19.699951 -6.699951,38.799927 -11.799927,57.599976c4.299927,-35.700012 -3,-72.300049 -21.900024,-104.100037c-2,-3.299988 -4.099976,-6.599976 -6.400024,-9.699982c0.300049,-0.399994 0.5,-0.899994 0.600098,-1.600006c2.799927,-39.599976 29.999878,-67.399994 69.699951,-69.700012c7.200073,-0.399963 13.799927,-1.299988 20.700073,-3.5c9.899902,-3.199982 15,-9.899963 26.699951,-7.199982c18.899902,4.199982 27.300049,30.199982 30.899902,46.399994zm-171.899902,188.299988c-3.799927,-13.700012 -8,-27.299988 -12.299927,-40.899963c-0.400024,-1.200073 -2,-0.700073 -1.800049,0.5c2.300049,13.899963 4.699951,27.799927 7.5,41.699951c-2.199951,-0.199951 -4.400024,-0.400024 -6.599976,-0.5c-5,-18.400024 -11.400024,-36.400024 -17.5,-54.400024c-0.400024,-1.299927 -2.200073,-0.699951 -2,0.5c3.5,17.900024 6.799927,36 11.299927,53.700073c-1.899902,0 -3.699951,0 -5.599976,0.099976c-13.400024,-29.200012 -28.5,-56.700012 -37.900024,-87.700012c-0.399902,-1.100037 -2,-0.700012 -1.799988,0.5c5.700012,29.899963 14.500061,61.899963 31.400085,87.700012c-3.800049,0.299988 -7.700073,0.799988 -11.5,1.299988c-18.400024,-40.600037 -33.200073,-83.399963 -45.400085,-126.299988c-0.399963,-1.400024 -2.299988,-0.800049 -2.099915,0.599976c6.5,44.900024 20.099915,86.400024 39.899902,126.900024c-4.699951,0.799988 -9.5,1.799988 -14.199951,2.900024c-8.900024,-20.800049 -19.100037,-40.600037 -26,-62.200073c-0.400024,-1.199951 -1.900024,-0.699951 -1.800049,0.5c3.100098,21.800049 9,44.600037 21,63.400024c-2.599976,0.700012 -5.099976,1.300049 -7.699951,2.099976c0,-0.099976 -0.100037,-0.299927 -0.100037,-0.399963c-5.700012,-12.200012 -13.599915,-23.299988 -19.5,-35.399963c-0.299988,-0.700073 -1.5,-0.200073 -1.200012,0.5c4.800049,12.299927 8.400024,25.299927 14.600098,37.099976c-4.700073,1.400024 -9.400085,2.799988 -14,4.299988c-8,-8.200012 -16.600098,-15.799988 -25.600098,-22.899963c-16.099976,-33 -24.399902,-68.900024 -21.699951,-105.700073c2.899963,-38.599976 21.300049,-74.299988 38.800049,-108.199951c24.699951,9.200012 50.899902,13.899994 74.399902,26.099976c21.900024,11.400024 40.300049,28.800018 54.5,48.700012c32.300049,45.399963 34.700073,106.100037 11.200073,155.700012c-9.200073,-4 -18.700073,-6.700012 -28.400024,-8.099976c0.299927,-0.600037 0.299927,-1.300049 0.099976,-2.100037zm77.899902,-231.399994c-5.099854,0.800018 -10.099854,2.199982 -14.799927,4.100006c0.5,-5.600006 0.799927,-11.299988 1.299927,-17c0.100098,-1 -1.399902,-1.100006 -1.699951,-0.200012c-1.699951,6.600006 -3.599976,13.100006 -5.099976,19.700012c-2.200073,1.099976 -4.400024,2.399994 -6.5,3.799988c0.400024,-7.700012 0.099976,-15.599976 0.200073,-23.299988c0,-0.399994 -0.700073,-0.5 -0.800049,-0.100006c-1.900024,9.200012 -4.400024,18.5 -5.5,27.899994c-2.5,2.100006 -4.900024,4.300018 -7.100098,6.700012c1.300049,-15.600006 0.800049,-31.399994 0.5,-46.900024c0,-1.099976 -1.5,-1 -1.599854,0c-2.200073,19.200012 -6.100098,38.5 -7.300049,57.800018c-1.900024,3 -3.599976,6.199982 -5.099976,9.399994c1.399902,-25.200012 0.299927,-50.599976 2,-75.699982c0,-0.700012 -1.100098,-0.899994 -1.200073,-0.200012c-4.199951,22.300018 -9.299927,45.399994 -11.199951,68.5c-1.5,-5.5 -3.200073,-11 -5.200073,-16.299988c1,-15.100006 2.400024,-30.300018 4.600098,-45.200012c0.099976,-0.799988 -1,-1.399994 -1.400024,-0.600006c-5.099976,10.800018 -8,21.5 -8.800049,32.700012c-1.799927,-3.700012 -3.699951,-7.299988 -5.699951,-10.899994c0.099976,-6 0.900024,-12 2.099976,-18c0.199951,-1.200012 -1.300049,-1.899994 -2,-0.800018c-2.300049,3.400024 -3.800049,7.100006 -4.699951,10.900024c-5.900024,-9.400024 -12.5,-18.300018 -19.700073,-26.5c20.099976,-28 47.599976,-46.400024 81.300049,-53.900024c12.099976,-2.700012 29.699951,27.700012 35.599976,36.400024c11.099976,16.199982 18.099976,34.099976 20.299927,53.599976c-10.099854,3.600006 -21.899902,2.5 -32.5,4.100006zm-66.699951,63.899994c-2.299927,-2.5 -4.599976,-4.899994 -7,-7.199982c-6.399902,-31.899994 -22.399902,-61.700012 -41.799927,-87.800018c-0.5,-0.599976 -1.300049,-0.099976 -1,0.600006c11.099976,25.200012 20.299927,50.899994 30.5,76.399994c-2.099976,-1.699982 -4.300049,-3.299988 -6.5,-4.899994c0,-0.100006 0,-0.199982 0,-0.299988c-1.400024,-7 -5.5,-13.300018 -8.400024,-19.700012c-3.300049,-7.100006 -7,-14 -10.800049,-20.799988c-0.299927,-0.600006 -1.299927,-0.200012 -1.099976,0.5c2.400024,6.399994 4.599976,12.899994 6.700073,19.399994c1.399902,4.5 2.199951,9.299988 3.299927,14c-0.199951,-0.100006 -0.299927,-0.200012 -0.5,-0.299988c-16.199951,-10.100006 -34.099976,-15.600006 -52.199951,-21c-1.900024,-2.700012 -4.300049,-5.100006 -6.300049,-7.800018c-0.399963,-0.5 -1.299988,-0.199982 -1.099976,0.5c0.700012,1.800018 1.200012,3.800018 1.799988,5.700012c-4.200012,-1.200012 -8.299988,-2.5 -12.399963,-3.800018c-0.900024,-2.5 -3,-4.599976 -4.5,-6.799988c-1.900024,-2.700012 -3.600037,-5.600006 -5.300049,-8.5c-0.699951,-1.200012 -2.399963,-0.200012 -1.899963,1.100006c1.5,3.299988 2.899963,6.600006 4.099976,10c0.200012,0.600006 0.400024,1.199982 0.600037,1.799988c-2.800049,-1 -5.5,-2 -8.300049,-3c-2.099976,-3.299988 -4.299988,-6.5 -6.299988,-9.899994c-2,-3.299988 -3.5,-7.299988 -6.299988,-10c-0.200012,-0.200012 -0.5,-0.100006 -0.5,0.200012c0,3.899994 1.799988,7.699982 3.200012,11.299988c1.099976,3.100006 2.299988,6.299988 3.5,9.399994c-0.100037,0.100006 -0.200012,0.300018 -0.299988,0.399994c-1.200012,2.200012 -2.300049,4.5 -3.5,6.700012c-1.300049,-3.100006 -3.100037,-6 -4.700012,-8.899994c-2.900024,-5 -5.100037,-10.399994 -8,-15.399994c-0.299988,-0.600006 -1.299988,-0.200012 -1.100037,0.5c2,5.399994 4.100037,10.799988 5.400024,16.5c1.299988,5.299988 1.400024,10.699982 3.700012,15.799988c0.099976,0.200012 0.200012,0.299988 0.200012,0.399994c-1.100037,2.200012 -2.200012,4.300018 -3.200012,6.5c-4.600037,-12.100006 -11.600037,-23.899994 -16.900024,-35.399994c-0.5,-1.100006 -2.299988,-0.299988 -2,0.799988c3,11.800018 5.200012,24.5 9.100037,36.300018c-2,-3.200012 -3.800049,-6.5 -5.400024,-10c-3.799988,-10.100006 -8.400024,-20 -12,-29.700012c-12.700012,-34.5 -13.299988,-72.699982 -5.799988,-108.399994c32.599976,30 78,40.5 111.899963,69.199982c35.099976,29.900024 53.200073,71.200012 61.099976,115.600006zm-162.299927,15.300018c-0.800049,2.5 -1.5,5 -2.199951,7.5c-3.600098,-8.100006 -8.400085,-15.5 -14.600098,-22c-0.599976,-0.699982 -1.599976,0.199982 -1.199951,0.899994c5,9.900024 9.399963,20 13.399963,30.400024c-0.599915,2.899963 -1.200012,5.799988 -1.700012,8.699951c-1.699951,-3.699951 -3.699951,-7.299988 -5.699951,-10.899963c-5.100037,-9.100006 -9.600037,-18.5 -14.400024,-27.700012c-0.599976,-1.099976 -2.599976,-0.299988 -2.099976,0.900024c3.399963,8.399963 6.899963,16.899963 9.5,25.599976c1.699951,5.599976 3,11.200012 4.800049,16.700012c-6.300049,-13.5 -14.100098,-26.5 -22,-37.900024c-0.700073,-1.099976 -2.700073,-0.399994 -2.200073,0.900024c6.700073,18.099976 13.099976,37.299988 20.799988,55.399963c-8.599976,-18 -18.899963,-35.399963 -29,-51.799988c-0.700012,-1.099976 -2.799988,-0.399963 -2.200012,0.900024c7.200012,17.200012 15.100098,34.100037 21.200012,51.799988c0.200012,0.700012 0.5,1.400024 0.700012,2.200012c-9.299927,-17.200012 -18.799927,-34.299988 -27.799927,-51.600006c-0.5,-1 -2.200073,-0.300018 -1.800049,0.800018c4.199951,10.099976 8.399963,20.199951 12.599976,30.299988c-0.200012,0 -0.5,0.100037 -0.700012,0.200012c-3.899963,-8.900024 -8.399963,-17.700012 -13.5,-26.300018c-25.499939,-43 -60.799988,-87.300018 -40.399963,-139.499969c4.900024,1.699982 10.799988,7.899963 12.199951,9.199982c12.400024,11.699982 23.800049,24.499969 34.400024,37.899994c21.799988,27 35.200012,57.5 51.900024,87.399994zm-73,-3.200012c15.199951,23.699982 26.300049,47.199982 32.800049,74.699982c2.699951,11.599976 5.399902,24.5 10.5,35.900024c-0.300049,-0.200012 -0.5,-0.300049 -0.800049,-0.5c-17.100037,-21 -33.800049,-41 -46.599976,-65.099976c-0.5,-0.900024 -2.100037,-0.300049 -1.700073,0.699951c8.5,22.599976 19.600098,45.700012 35.400024,64.400024c-1.799927,-0.799988 -3.700012,-1.599976 -5.5,-2.400024c-49.099976,-52.599976 -73.799988,-119.399963 -65.799988,-191.999969c0.399963,-3.600006 1,-7.100006 1.600037,-10.700012c0.699951,33.5 22.899963,68.200012 40.099976,95zm-111,55.399994c14.099976,10.899963 28.699951,20.799988 44.900024,28.100037c-9,-1.5 -18,-2.900024 -27,-4.300049c-21,-11.900024 -39.900024,-24.099976 -55.800049,-43c-11.900024,-14.099976 -20.400024,-30.699982 -25.699951,-48.199982c12.799927,25.100006 36.799927,42.000031 62.799927,54.000031c35.800049,16.599976 74.100037,25.699951 108.700012,44.899963c2.900024,3.600037 6,7.200012 9.200012,10.600037c-15.799988,-8.100037 -33.700012,-12.5 -50.599976,-16.900024c-23.100037,-6 -43.900024,-16.400024 -65.200012,-26.800049c-1.100037,-0.499939 -2.299988,0.800049 -1.299988,1.600037zm-16.300049,13.600037c-5.199951,1.299927 -10.099976,2.299927 -15.299988,2.299927c-9.599976,-1.699951 -19.200012,-3.599976 -28.799988,-5.799927c2.900024,-0.700073 5.900024,-1.5 8.799988,-2.100037c7.900024,-1.600037 16.100037,-1.899963 24.100037,-3.100037c3.599976,3.100037 7.399963,6.000061 11.199951,8.700073zm102.600037,31.599976c27,6.400024 52.700012,16.299988 76.899963,30c22.100037,12.5 41.600037,28.700012 62.200012,43.400024c-7.599976,2.599976 -14.899963,5.199951 -22,7.799988c-18.5,6.700012 -37.200012,13.899963 -55.399963,22.200012c-0.200012,-0.100037 -0.300049,-0.100037 -0.5,-0.200012c-20.300049,-4.200012 -39.400024,-6.700012 -58.600037,-15.200012c-1.599976,-0.700012 -3,1.5 -1.399963,2.400024c14.5,7.699951 30.5,15.599976 46.899963,19.5c-2.5,1.199951 -4.899963,2.5 -7.299988,3.699951c-11.799988,-4 -24.200012,-5.699951 -36,-9.699951c-14.5,-4.800049 -27.700012,-13.400024 -40.299988,-21.800049c-0.900024,-0.599976 -1.900024,0.700012 -1.100037,1.400024c16.900024,15.5 41.400024,31.599976 65.300049,36.700012c-2.700012,1.5 -5.300049,3.099976 -7.900024,4.700012c-76.599976,-25 -143.599976,-78.900024 -175.299988,-154.100037c50.5,13.799988 103.399963,17.200012 154.5,29.200012zm-32.100037,112.799988c10.400024,5.299988 21.200012,9.899963 32.300049,13.700012c-1.200012,4.799988 -2.300049,9.599976 -4.5,14c-0.700012,1.5 -1.800049,2.900024 -2.900024,4.299988c-4.700012,3.899963 -9.200012,7.899963 -13.5,12.200012c-5.400024,-1.400024 -9.700012,-4.099976 -12.700012,-11.200012c-4.599976,-10.899963 -2.099976,-22.200012 1.299988,-33zm-15,-8.399963c3.5,2.099976 7,4 10.5,5.899963c-5,6.399963 -7.599976,15.100037 -7.599976,23.600037c-2.599976,0.299927 -5.299988,0.599976 -7.900024,0.899963c-1.099976,0.100037 -1.599976,1.899963 -0.299988,2.100037c2.799988,0.5 5.600037,0.899963 8.400024,1.399963c0.200012,2.100037 0.599976,4.100037 1.099976,6.100037c-11.299988,-0.400024 -24.299988,-0.400024 -34.700012,2.799927c-0.699951,0.200073 -0.799988,1.300049 0,1.5c5.900024,1.300049 12,1.200073 18.100037,1.400024c6.599976,0.300049 13.099976,1.300049 19.599976,1.900024c0,0 0,0 0,0c0.900024,1.599976 1.900024,3 2.900024,4.199951c-18.5,-2 -36.900024,-0.799927 -55.600037,2c-0.799988,0.100037 -0.5,1.300049 0.200012,1.300049c19.200012,0.400024 38.299988,2.699951 57.400024,5.299988c-8.899963,0.299988 -17.700012,0.799988 -26.5,0.899963c-19.799988,0.200073 -39.700012,0.800049 -59.5,1.5c-0.899963,0 -1.099976,1.400024 -0.200012,1.600037c16.599976,2.799988 34.300049,5.399963 52.099976,6.700012c-6,1.099976 -12.099976,2.199951 -18.099976,3.400024c-32.599976,-1.800049 -65.299988,-6.100037 -97.299988,-12.200073c-3.200012,-1.299927 -6.400024,-2.599976 -9.799988,-3.599976c33.099976,-46.399963 91.099976,-68.599976 147.199951,-58.699951zm-27.599976,83.5c38.599976,2 83.200012,3.400024 120.700012,-7.700012c10,4.299988 19.899963,9.100037 29.799988,13.900024c-16.700012,7.899963 -32.200012,16.799988 -50.099976,22.5c-0.5,0.200012 -0.5,1.099976 0.099976,1c19.599976,-2 41.700012,-6.799988 58.099976,-18.200012c0.400024,-0.299988 0.700012,-0.599976 1,-0.900024c2.600037,1.200012 5.200012,2.400024 7.700012,3.600037c-29.099976,14.299988 -57.200012,26.700012 -90.299988,29.099976c-1.299988,0.100037 -1.299988,2 0,2c35,1.600037 72.400024,-4.599976 100.599976,-26.599976c3.5,1.5 7,2.899963 10.5,4.200012c-24.699951,13.599976 -47.899963,25.699951 -76.099976,31.699951c-30.700012,6.5 -62.700012,4.600037 -93,-3.199951c-29.299988,-7.600037 -55,-22.600037 -79,-40.700012c-11.200012,-8.5 -22.400024,-17 -34.400024,-24.000061c31.100037,7.200012 62.400024,11.700012 94.400024,13.300049zm155.400024,-0.400024c-29.100037,-13.799988 -57.800049,-27.299988 -90,-29.599976c36.699951,-30.800049 79.5,-50 124.399963,-66.700012c26.299988,-9.700012 52.799988,-18.700012 80.400085,-23.5c18.299927,-3.200012 36,-3 53.5,-0.400024c0.299927,0.200012 0.599976,0.299988 1,0.299988c44.199951,5.700012 64.499878,46.300049 46.599976,86.400024c-16.5,36.799988 -59.200073,52.900024 -96.5,57.799988c-42.400024,5.700012 -81.600037,-6.299988 -119.400024,-24.299988zm167.5,21.299988c11.900024,-5.099976 22.800049,-11.900024 32.300049,-20.099976c-0.400024,3.599976 -0.400024,7.299988 0.199951,10.899963c0.199951,1.200012 2,0.799988 2,-0.299988c0.199951,-5.400024 1.199951,-10.700012 3.199951,-15.700012c1.5,-1.5 2.900024,-3 4.300049,-4.599976c0.699951,6.599976 2.199951,13.200012 3.599976,19.5c0.199951,0.700012 1.300049,0.599976 1.300049,-0.200012c-0.300049,-8.900024 0.799927,-17.700012 0.899902,-26.5c1.100098,-1.5 2.200073,-3.100037 3.200073,-4.700012c1.099976,10.400024 3.599976,21.200012 5.599976,30.900024c0.099976,0.599976 0.900024,0.399963 1,-0.100037c1.300049,-14.099976 3.5,-30.099976 1.199951,-44.200012c-0.099976,-0.399963 -0.199951,-0.699951 -0.299927,-1c0.299927,-0.699951 0.5,-1.299927 0.799927,-2c4.700073,17.200073 10.100098,34.100037 15.700073,51.000061c0.400024,1.099976 1.900024,0.599976 1.699951,-0.5c-2.799927,-17.700012 -5.699951,-35.299988 -9.299927,-52.799988c1.699951,1.899963 3.699951,3.699951 5.699951,5.5c5.300049,12.799927 10.899902,25.199951 14.899902,38.599976c0.5,1.599976 2.700073,0.899963 2.400146,-0.700012c-1.700073,-10.299988 -4,-20.799988 -7.600098,-30.700012c3.699951,2.400024 7.600098,4.599976 11.199951,6.5c1.300049,4.700012 4.5,9 6.900146,13.100037c0.399902,0.699951 1.5,0.199951 1.299927,-0.500061c-1.099976,-3.199951 -1.599976,-6.5 -2.299927,-9.699951c2.199951,1 4.299927,1.900024 6.199951,2.599976c1.800049,0.700012 3.599976,1.300049 5.399902,2c0.600098,1.400024 1.200073,2.900024 1.800049,4.300049c0.699951,1.699951 3.600098,1.099976 2.900024,-0.800049c-0.299927,-0.799988 -0.5,-1.599976 -0.799927,-2.299988c11,3.200012 22.399902,4.599976 34,4.700012c0,0 0,0.099976 0.099854,0.099976c10.300049,14.400024 23.300049,25.100037 37.900146,33c-9,20.200012 -23.300049,32.599976 -41.900146,45.099976c-14.799927,10 -29,20.300049 -38.5,35.600037c-25.099854,-6.299988 -49.699951,-14.400024 -73.699951,-24.100037c-28.399902,-11.5 -50.499878,-23.199951 -58.599976,-53.399963c8.700073,-2.200012 17.200073,-5 25.300049,-8.5zm158.599976,-28.099976c4.199951,-0.200012 8.400024,-0.700012 12.599976,-1.200012c0.200073,0.200012 0.5,0.5 0.800049,0.700012c36.400024,24.099976 83.699951,43.5 127.400024,29.900024c0.699951,-0.200012 0.599976,-1.400024 -0.200073,-1.400024c-42.599976,3.400024 -77.199951,-13.299988 -113.5,-31.799988c2.800049,-0.599976 5.5,-1.300049 8.300049,-2c10.900024,6.599976 23.200073,9.899963 34.799927,15c1,0.399963 1.900024,-0.900024 0.900024,-1.5c-8.799927,-4.900024 -16.699951,-11.200012 -25.299927,-16.5c3.799927,-1.200012 7.599976,-2.599976 11.399902,-4.099976c19.5,-1.700073 38.400146,-3.300049 58.300049,-2c26.900024,1.799927 53.599976,6.599976 80.5,8.899963c33.300049,3 69,0.899963 101.900024,-8.899963c-2.300049,1.799927 -4.599976,3.5 -6.800049,5.299927c-29.299927,23.200012 -59.900024,38.100037 -96.599976,45.800049c-66.5,14.099976 -143.5,13.299988 -194.5,-36.200012zm322.199951,-31.600037c-18.199951,5.800049 -36.399902,11.200073 -55.299927,14.5c-27.099976,4.800049 -54.5,4.100037 -81.799927,1.300049c-15.100098,-1.5 -31.600098,-4.300049 -48.400146,-6.400024c-14.899902,-4.599976 -31,-7.699951 -46.699951,-8.5c1.300049,-0.900024 2.5,-1.799988 3.699951,-2.699951c9.400146,2.5 19.400146,1.799927 29.200073,2c11.5,0.199951 23,1.099976 34.400024,0.599976c0.800049,0 1.099976,-1.300049 0.199951,-1.5c-11.199951,-2.200012 -22.599976,-3.099976 -33.899902,-4.700012c-7.200073,-1 -14.600098,-2.600037 -21.900146,-2.899963c1.100098,-0.900024 2.100098,-1.900024 3.100098,-2.800049c13.399902,1.599976 27,1.099976 40.5,1.800049c16.099976,0.899963 32.399902,3.399963 48.5,2.899963c1.5,0 1.699951,-2.100037 0.300049,-2.5c-14,-4.600037 -28.900146,-5.700012 -43.400146,-7.100037c-12.799927,-1.199951 -26.199951,-2.5 -39.299927,-1.799927c1.400024,-1.5 2.799927,-3.100037 4.200073,-4.700073c25.199951,1.300049 50.599854,1.600037 75.799927,2c0.299927,0 0.5,-0.299927 0.599976,-0.599976c0,0 0,0 0,0c0.400024,0.200012 0.699951,-0.400024 0.300049,-0.599976c-0.199951,-0.099976 -0.300049,-0.200012 -0.5,-0.200012c-0.199951,-0.100037 -0.400024,0 -0.5,0.200012c-23.100098,-4.800049 -47.199951,-7.599976 -70.900024,-7.200012c1.299927,-1.799988 2.5,-3.600037 3.700073,-5.399963c12.399902,0.699951 25.099854,-0.5 37.5,-1.400024c1.399902,-0.099976 1.299927,-2 0,-2.099976c-11.200073,-1.100037 -22.700073,-2.400024 -33.900146,-2.400024c0.5,-0.800049 1,-1.700012 1.400146,-2.599976c4.899902,0.5 9.899902,0 14.699951,-0.600037c1.399902,-0.200012 2.099976,-2.399963 0.399902,-2.700012c-4.099854,-0.699951 -8.399902,-1.299988 -12.699951,-1.299988c2.900024,-6 5.300049,-12.399963 7.100098,-18.899963c39.399902,-18.400024 83.799927,-24.5 126.699951,-17.5c39.699951,6.5 84.899902,28.5 94,70.899963c-13.400146,1.399963 -25.600098,6.299988 -37.100098,12.899963z" id="svg_1"/>
  <path class="st0" d="m975.099976,784.700012c-9.899963,-6.599976 -22.299927,-10.299988 -33,-15.5c-12.199951,-5.899963 -24,-13.200012 -34.699951,-21.600037c-1.099976,-0.799927 -2.599976,0.5 -1.5,1.5c17.599976,16.800049 42.599976,38.100037 68.400024,38.500061c1.699951,0.099976 2.099976,-2.000061 0.799927,-2.900024z" id="svg_2"/>
  <path class="st0" d="m1017.200012,786.400024c-29.600037,-11.799988 -57.799988,-24.200012 -83.399963,-43.5c-0.900024,-0.700012 -2,0.799988 -1.200073,1.599976c22.900024,22.800049 50.900024,41.400024 82.900024,48.100037c4.099976,0.899963 5.5,-4.700012 1.700012,-6.200012z" id="svg_3"/>
  <path class="st0" d="m1043.099976,787.200012c4.599976,1.400024 6.400024,-5.599976 2,-7.099976c-23.099976,-8.100037 -44.799927,-17.200012 -65.099976,-31.200012c-0.799988,-0.599976 -1.799988,0.699951 -1,1.299988c18.799988,16 40.299988,29.700012 64.099976,37z" id="svg_4"/>
  <path class="st0" d="m1063,783.900024c2.699951,1.5 5.699951,-2.200012 3.300049,-4.299988c-10.200073,-9.200012 -23.400024,-15.600037 -35.600098,-21.600037c-0.799927,-0.400024 -1.799927,0.700012 -1,1.300049c10.700073,8.399963 21.300049,17.999939 33.300049,24.599976z" id="svg_5"/>
  <path class="st0" d="m1076.900024,775.700012c2.400024,2 5.199951,-1.700012 2.599976,-3.400024c-5.5,-3.599976 -11,-6.899963 -16.400024,-10.599976c-1,-0.700012 -2.199951,0.899963 -1.199951,1.600037c5.099976,3.899963 10,8.199951 15,12.399963z" id="svg_6"/>
  <path class="st0" d="m1307.400024,732.299988c-2.099976,1.799988 0.599976,4.600037 2.799927,3.600037c22.5,-10.300049 37.400146,-32.800049 43.600098,-56c0.399902,-1.400024 -1.699951,-2.300049 -2.300049,-1c-10.599976,21.799988 -26.400024,37.599976 -44.099976,53.399963z" id="svg_7"/>
  <path class="st0" d="m1279.800049,744.200012c-1,1 0.299927,2.600037 1.5,2c22.299927,-11.700012 36.699951,-30.200012 47.299927,-52.899963c0.5,-1 -0.799927,-1.800049 -1.5,-0.900024c-13.5,18.899963 -30.799927,35.5 -47.299927,51.799988z" id="svg_8"/>
  <path class="st0" d="m1258.400024,752.299988c17.400024,-9 31.099976,-24.600037 39.799927,-42c0.300049,-0.700012 -0.5,-1.399963 -1.099854,-0.799988c-13.200073,13.900024 -27.400146,26.5 -41.100098,39.799988c-1.599976,1.5 0.5,4 2.400024,3z" id="svg_9"/>
  <path class="st0" d="m1241.400024,750.299988c13.400024,-4.899963 22.200073,-18.799988 27.700073,-31.200012c0.5,-1.199951 -1.100098,-2.199951 -1.800049,-1c-3.300049,5.800049 -7.5,10.900024 -12.400024,15.5c-5,4.599976 -11,7.900024 -16.200073,12.200012c-2.099976,1.600037 0.100098,5.400024 2.700073,4.5z" id="svg_10"/>
  <path class="st0" d="m1230.599976,745.299988c4.799927,-4.200012 9.400024,-8.700012 14.299927,-12.799988c1,-0.800049 -0.299927,-2.5 -1.399902,-1.800049c-5.100098,3.800049 -10.5,7.200073 -15.699951,11c-2.600098,2.000061 0.299927,5.800049 2.799927,3.600037z" id="svg_11"/>
  <g id="svg_12"/>
  <g id="svg_13"/>
  <g id="svg_14"/>
  <g id="svg_15"/>
  <g id="svg_16"/>
  <g id="svg_17"/>
  <g id="svg_18"/>
  <g id="svg_19"/>
  <g id="svg_20"/>
  <g id="svg_21"/>
  <g id="svg_22"/>
  <g id="svg_23"/>
  <g id="svg_24"/>
  <g id="svg_25"/>
  <g id="svg_26"/>
 </g>
</svg>